/* XPM */
static char *stone_brick_floor_dark_color_castle_studio_ghibli_style_hand_drawn_oil_painting_watercolor_333975193__1_1684524206[] = {
/* columns rows colors chars-per-pixel */
"64 64 61 1 ",
"  c #080707",
". c #080708",
"X c #0C0C0C",
"o c #100F0F",
"O c #0F0F10",
"+ c #141414",
"@ c #181716",
"# c #171718",
"$ c #181718",
"% c #1B1B1C",
"& c #201F1E",
"* c #23211F",
"= c #1E1E21",
"- c #201F21",
"; c #1F2022",
": c #232224",
"> c #292624",
", c #2C2926",
"< c #262629",
"1 c #282729",
"2 c #27282B",
"3 c #2A2A2D",
"4 c #312E2B",
"5 c #34312E",
"6 c #38342F",
"7 c #2D2E32",
"8 c #302F31",
"9 c #2F3034",
"0 c #323235",
"q c #3A3632",
"w c #3D3935",
"e c #343539",
"r c #383739",
"t c #37383D",
"y c #393A3D",
"u c #413C36",
"i c #433E39",
"p c #46413C",
"a c #49443E",
"s c #4E483F",
"d c #3C3D41",
"f c #403F40",
"g c #3F4045",
"h c #414246",
"j c #4B4641",
"k c #4E4943",
"l c #434549",
"z c #494A4E",
"x c #514C45",
"c c #534F49",
"v c #555045",
"b c #56514A",
"n c #5A544D",
"m c #5E594D",
"M c #5A5650",
"N c #5E5951",
"B c #605A4E",
"V c #625C51",
"C c #656055",
"Z c #676258",
"A c #6B6558",
/* pixels */
"737:%7777;.o-;:::;21O132379970$199799e77$www6w5555ww66p,:7739+<9",
"<<::&<:=%e5@qwwrwq%X$;;==$%;::#=<::<:::2>,555%:731X,09q339321@;:",
"pppkkkkaqck0vnnnnms+3e970<<9777777327-3bccccv00000<zddyyytytydye",
"quppiaaawaiwpjajaaa@3e990<<0790099900$wbkxxxx477931y9ettytt09212",
">%&*>>,,%46>,355,,&o%;:-;#+:%-::::==:O>qq8qw4-2271&,,1*%&%%&,3,;",
"kpiuwwia*,kpwq55uip,:q5535www4,@+::<31:$X#$+o#==%Oqapps*wpwpapja",
"ppaaakacq4apaaaapia>qaaasaaaaas><e9ee9ee-8t8eee00%5aipa3aaapppip",
">>,456qi*:wq666666u&>5454,>*>>4+=::;;::;$-<-==-<2%:,*>,+3544,,35",
"w:#::-::&>1377-<23003032323:=2777777772727277t->iiaajaiwwq55qqq%",
"cw7teeee0eee8e3eeeeeeeeeyty07t9999970000009e0f35kappkjajkkakjak6",
"i4:77171223233-<721:<>::%:2%%227777787777322<3+-u5wuqqeqwwwqwui4",
"t88%#<1280e8:e0ett;:de00r%+<23$%=--=%----<<-<38t04:o:<<;+@5t>3hr",
"ttd-7dtdyyte<tteet2ed0e0h8eyed3eeed:8yttdffllzlffld-gddg<0dgy,te",
"<-2$-712<22<+-===:%97999e<777012221-88778727377078<3d77d<e70e:72",
"=11217171:+,48qw0q=77777e:977e=;1<<<777<=-<<<<--:<$e9990;e7e7%::",
"-t0e9e78e7,aajijjk770777e:0770;7e0e0890<-t0999e97e<09092<07e::e0",
"#<:1778077<pipppia078777e<777e%<2<<2770:-8787877807e99e2799e;:e7",
",7<%o$$==%+>***>>4&<7371<%<<<<O+&<,&+#$%%:=$$$--:<=2177$:21:O+;:",
"VNccj+0jijkji+<847808-ywqwuwrijkbbcM4,mcNNncx<-7277:33737<$0rttd",
"uiiin,ixccxxc:yeee0e8>xkccxkkkkjiiiak4kaajxsc07e00077009e33ldddy",
"ipaik>wpiiiip$::%%%%#+0wqwqwwuipaiiai8jiiiuwu%-<::<=;<:2<++32333",
"43370*,603451>wq0qwqq8,@<ere3&3348887::,333,$%4wijajjka@3re00%50",
"tte0eeeee00e9qsaaaakakx,9etty,99e70079#7eeet>xABVVVVNVC3yteey3sx",
":=%=%%=:27772<6wuuiiiup,79770=2<<<<2<=.=:<:1%&pckkkaaap:77770&45",
"==:22<=#12787223333434,=99799qjawww,iwuwwuwyq4>+-<<<<22;07770$%;",
"e00e8e8:teeeeettre007e7:e7797kccccbkbmmNmVVZZVN:e80eee7;e7999=0e",
"172221=+=====%%-==:<:=++2773<6wqwqw4wqqwuuq0445@2::=%%#+=:<21%72",
":<127721=wkiawq@+kcccjhq>+322327773<2323:+8t0<+0888<:<770$7ee$-<",
"eee0e7et7ijaakx4kciaajkcn:t9eee9008eeeet72d0ed=9eeeetee0t<eey;70",
"77777777:iiiuuw4iiiiiwiiw=22<<21<222<1<2=<0779=7777777777:070:37",
"#====%+#$,<:-&+&aiipiiiik$199:$22222<<<1#29779#7977977792:e70+%:",
"7779e%%9rtryyd0>awiiiiiij1e9e7:e9007070e=29777=9777777777:e70@20",
"7077e%7y0e00003<apiipppaj29702:077722237=77777:07779080e7<070$07",
"#::::+#<<:<::3:*4,,>*:,,,%227-#:=$-:<<11#%<:::+::;::--=-==1<<O--",
"qy+:227277773kkxbkjcu@773727730ed2eteeee$7tee:0eeeee--qq30qww0fk",
"aj3teeeee0ee4aapaapkp,eeeeeeeee0e<777787=detd0tttttg7ibkkjkkxcck",
"wu:87<<:;:<<%46555,5>%32:=:<:*%&-+----=+%e7772:-%--2$quuuw60wwwq",
"27%o<9907<+%3<:@36wwipaja%aip&%wwu0wijiw<877e-:3,<<:-3874<,2$:3:",
"9t<X7eeeet02e00:sasaaaaaa,aas,0jiaiaiuaj77778<yytttddddtttdd170e",
"<1%.+=#%=:==3<<@wpqqwiuuq%q5u@&>>*,45qq4=2727%277<<=-====-=<$-1<",
"<>,,>>,-$<<<3<-:qrq53%>,<<33007048:X;<<<:1<<3::<<-&qwwqwwuiuui4-",
"cixkkxvi7dttee0uaaskx57tetttyyddtde$tettyyyteteet0wnnnbvccvccbku",
",<44,45,=22137<,w666u*;2:1<:<<<2<2<X<<::::122<<:-->q4q0445545q,,",
"<221<11-<+=tetreyrrrw099997:722,jaaaaaiuqw%:72723773&4qq48qqq+:7",
"7d9909990=teeettttttttte0e99teeqVmBBVBBBNAw<e90et000,kjkakkax-<0",
"=-2213232=72:-==%===;%#$;:$3e90<kaakscxxvm5:e9977702+wuwuiiai@%2",
"ed000000000070:+222<:+3yte3399e=<2<-$+%%;*#$;%;:====$$$=&&&:-=ye",
"7277777777777e0:e0900=e97972990:807e,-0777777;:77277t<3087777<77",
"2299890999897e7-97799$29792<090;7779<:727777e22077777:277712::72",
"e2----=$$$$==-$%:;;=%+$;;<%+::1&11%&*:<:$%=##+%<<<<<<%:=+%17=#7r",
"MVbz+$3<<-31370ttt0e<ajaajkkkckkjk3wkjjkq<0%:227779e0e0y<0yfejVN",
"kkkN-edededetee0eeet5ajkkkkcxxxxkkqqappsr27%eteed9ee0e0t207t1ixj",
"56rf-37322<<----:::1%wuqqqw5q03453%>3,,,%$%+211<=<1<:<::=97t::q,",
"007788777-e0eertee0qewee9&X1097+<373323%17997777-.&ijkx4=e7e1ijj",
"d0ed0e0d72detdffgglghggdhe3deet:9009979<e0997777e=7kijji70700kja",
"==---3-3==2<<72221<113229::2222#$$$*31;O%;%;:::::=3iuii02707<5qq",
",4,4&wiiwwuuu&8iippiuwww@5wq50q5w03mnbbp0@37807er,0piiaq+#+,,,,&",
"kkkx4ikkkjjsb5ijaakxkaaa*pppaaaaaawapajkc,07779ee0wpiii077:xxxxa",
"iiii&455qquii-uiiuwwuppu&43444qwuwqaiiiww+$--==;=%:wwwi,:7:apaaa",
"<,3,<<7788-+>->,,*%$+@%*+@33,:+%**%::::3>3ckaiwwq5qwqu4o=-=,***,",
"0d0tddeddgd=fdddtddd#79983dddg:00eeeeety3akiiaaajjjjkjb4eee94+27",
"--$===:279:=812:::;:+<21<,7779:933223330:qiiiiuiiiiwiuc427777%80",
"<787$:--#-<:1222<<:X+<2<::e790$%::::=;%:#wiiiiiiiiipiuc<=::-=+77",
"ee07:eee12e9090890e##0709<777e$209709979$qaiiiiiiiwiiuc7:7783$77"
};
