/* XPM */
static char *result[] = {
/* columns rows colors chars-per-pixel */
"50 50 108 2 ",
"   c #0D0315",
".  c #0D0415",
"X  c #0D0416",
"o  c #0E0516",
"O  c #0F0516",
"+  c #0E0517",
"@  c #140516",
"#  c #110619",
"$  c #12071B",
"%  c #1F0719",
"&  c #14081C",
"*  c #15091D",
"=  c #170A1F",
"-  c #270819",
";  c #30091B",
":  c #380C1D",
">  c #180B21",
",  c #180C21",
"<  c #190C22",
"1  c #1C0D24",
"2  c #1D0E26",
"3  c #1F0E26",
"4  c #1E0F26",
"5  c #1E0F27",
"6  c #1F0F28",
"7  c #0B1224",
"8  c #1A1025",
"9  c #2A0F26",
"0  c #201029",
"q  c #201129",
"w  c #21112A",
"e  c #22112B",
"r  c #291029",
"t  c #301C2D",
"y  c #510E1F",
"u  c #46101C",
"i  c #52101F",
"p  c #55111E",
"a  c #56111E",
"s  c #5D141B",
"d  c #5F151A",
"f  c #5E141B",
"g  c #58121D",
"h  c #5A131C",
"j  c #58131E",
"k  c #5A141E",
"l  c #5D141C",
"z  c #5C151D",
"x  c #5E191F",
"c  c #631316",
"v  c #611519",
"b  c #621518",
"n  c #611619",
"m  c #621619",
"M  c #60151A",
"N  c #62191A",
"B  c #641B1E",
"V  c #6E211A",
"C  c #68271A",
"Z  c #662D1E",
"A  c #72221A",
"S  c #70241B",
"D  c #74261D",
"F  c #78291B",
"G  c #7D2A1B",
"H  c #450C21",
"J  c #470C24",
"K  c #480C23",
"L  c #490C23",
"P  c #4A0C22",
"I  c #4A0D22",
"U  c #4B0D22",
"Y  c #4A0D23",
"T  c #4D0E21",
"R  c #500F20",
"E  c #4D1120",
"W  c #592229",
"Q  c #462E3F",
"!  c #08354D",
"~  c #483D48",
"^  c #064B66",
"/  c #115D7A",
"(  c #05617D",
")  c #21657C",
"_  c #42515C",
"`  c #415C65",
"'  c #893920",
"]  c #99512C",
"[  c #A8532B",
"{  c #B76232",
"}  c #10718D",
"|  c #2C7D8C",
" . c #008AA9",
".. c #018BB0",
"X. c #03A1B5",
"o. c #02A8BF",
"O. c #1BA1B3",
"+. c #00A6C9",
"@. c #04A5CD",
"#. c #12B3C7",
"$. c #0CB5D1",
"%. c #05C0DF",
"&. c #00CCE4",
"*. c #03CDE7",
"=. c #00D9EF",
"-. c #00DDF3",
";. c #00E0F6",
":. c None",
/* pixels */
":.:.:.:.:.:.:.:.:.:.:.:.:.:.:.:.:.:.:.:.:.:.:.:.:.:.:.:.:.:.:.:.:.:.:.:.:.:.:.:.:.:.:.:.:.:.:.:.:.:.",
":.:.:.:.:.:.:.:.:.:.:.:.:.:.:.:.:.:.:.:.:.:.:.:.:.:.:.:.:.:.:.:.:.:.:.:.:.:.:.:.:.:.:.:.:.:.:.:.:.:.",
":.:.:.:.:.:.:.:.:.:.:.:.:.:.:.:.:.:.:.:.:.:.:.:.:.:.:.:.:.:.:.:.:.:.:.:.:.:.:.:.:.:.:.:.:.:.:.:.:.:.",
":.:.:.:.:.:.:.:.:.:.:.:.:.:.:.:.:.:.:.:.:.:.:.:.:.:.:.:.:.:.:.:.:.:.:.:.:.V A :.:.:.:.:.:.:.:.:.:.:.",
":.:.:.:.:.:.:.:.:.:.:.:.:.:.:.:.:.:.:.:.:.:.:.:.:.:.:.:.:.:.:.:.:.:.:.:.:.G F :.:.:.:.:.:.:.:.:.:.:.",
":.:.:.:.:.:.:.:.:.a :.:.:.:.:.:.:.:.:.:.:.:.:.:.:.:.:.:.:.:.:.:.:.:.:.:.:.G V :.:.:.:.:.:.:.:.:.:.:.",
":.:.:.:.:.:.:.:.:.k :.:.:.:.:.:.:.:.:.:.:.:.:.:.:.:.:.:.:.:.:.:.:.:.:.:.j B k :.:.:.:.:.:.:.:.:.:.:.",
":.:.:.:.:.:.:.:.I i y :.:.:.:.:.:.:.:.:.:.:.:.:.:.:.:.:.:.:.:.:.:.:.:.K R B x P J :.:.:.:.:.:.:.:.:.",
":.:.:.:.:.:.:.:.U T U :.:.:.:.:.:.:.:.:.:.:.:.:.:.:.:.:.:.:.:.:.:.:.j p p p R L L H :.:.:.:.:.:.:.:.",
":.:.:.:.:.:.:.I T L L L :.:.:.:.:.:.:.:.:.:.:.:.:.:.:.:.:.:.:.:.:.j x s m h R g g T Y :.:.:.:.:.:.:.",
":.:.:.:.:.:.:.i s L p i :.:.:.:.:.:.:.:.:.:.:.:.:.:.:.:.:.:.:.:.K i f m m s L h m f R P J :.:.:.:.:.",
":.:.:.:.:.:.Y h M T s s Y :.:.:.:.:.:.:.:.:.:.:.:.:.:.:.:.:.:.K R g M m m m T i m m h p T L :.:.:.:.",
":.:.:.:.:.K i g s T f m R H :.:.:.:.:.:.:.:.:.:.:.:.:.:.:.:.K i M h f m m f i R m m g m M p L :.:.:.",
":.:.:.:.:.i M M f T f s p U :.:.:.:.:.:.:.:.:.:.:.:.:.:.:.H i m m s M m m s p T M m h m m m h T :.:.",
":.:.:.:.I f m m M T s g x p H :.:.:.:.:.:.:.:.:.:.:.:.D T i M m m m m m m m M R f m M m m m N E E :.",
":.:.:.J p m m m M T f m ` ~ P y :.:.:.:.:.;.:.:.:.:.:.z x g m m M M m m m m m i h m m m m :.:.:.:.:.",
":.:.:.E z m m m M T f c _ | i Q :.:.:.:.-.;.:.:.:.:.:.Y p T h h g M m m m m m g p m m m :.:.:.:.:.:.",
":.:.:.:.:.:.b m M T f c | *.O.%.%.+. .&.=.-.:.j :.:.:.P s R L g m m m m m m m s p m d :.:.:.:.:.:.:.",
":.:.:.:.:.:.:.N f R M c ~ #.O.$.*...} +.o.X.8 u S :.:.T m M R T s m m m m m m M g d :.:.:.:.:.:.:.:.",
":.:.:.:.:.:.:.:.i R m M p W M ) ..^ ..^ 7 7 $ 1 R l I i m m M R T s m m m m m n i :.:.:.:.:.:.:.:.:.",
":.:.:.:.:.:.:.:.:.U m p g m b } ....( 7     * < 9 p T R h M m M p T s m m m :.:.:.:.:.:.:.:.:.:.:.:.",
":.:.:.:.:.:.:.:.:.:.d i j :.:.@.+.( ! 7   $ $ = 6 : L h s s m m m g i M m :.:.:.:.:.:.:.:.:.:.:.:.:.",
":.:.:.:.:.:.:.:.:.:.:.:.:.:.:.:./ ( ! O   O 1 = = r I v v v m b b b g i :.:.:.:.:.:.:.:.:.:.:.:.:.:.",
":.:.:.:.:.:.:.:.:.:.:.:.:.:.:.3 9 t @   % - = 6 * 5 :.:.:.:.:.:.:.:.:.L H :.:.:.:.:.:.:.:.:.:.:.:.:.",
":.:.:.:.:.] ' :.:.:.:.:.:.:.& , : u : % - % % 6 1 1 & :.:.:.:.:.:.:.:.:.:.:.:.:.:.:.:.:.:.:.:.:.:.:.",
":.:.:.:.:.C S :.:.:.:.:.:.q 6 $ % ; ; x u - - 1 6 < q :.:.:.:.:.:.:.:.:.:.:.:.:.:.:.:.:.:.:.:.:.:.:.",
":.:.:.:.:.:.E :.:.:.q 0 w w *   @ : ; : : - ; < w = 5 :.:.:.:.:.:.:.:.:.:.:.:.:.:.:.:.:.:.:.:.:.:.:.",
":.:.:.:.:.:.& :.:.# * $ 1 =     ; i : % - @ O < e < , :.:.:.:.:.:.:.:.:.:.:.:.:.:.:.:.:.:.:.:.:.:.:.",
":.:.:.:.:.:.# :.:.:.:.. O O     @ ; ; @     O 2 w 6 = < :.:.:.:.:.:.:.:.:.:.:.:.:.:.:.:.:.:.:.:.:.:.",
":.:.:.:.:.:.& :.:.:.:.:..   $ *   O @ O 1 $ = w w 6 = q :.:.:.:.:.[ { :.:.:.:.:.:.:.:.:.:.:.:.:.:.:.",
":.:.:.:.:.:.:.:.:.:.:.:.o O < <     O 1 6 * 6 w w 6 = w :.:.:.:.:.N Z F :.:.:.:.:.:.:.:.:.:.:.:.:.:.",
":.:.:.:.:.:.:.:.# & > 8 0 1 6 * O * 6 w 1 = w w w 6 1 0 :.:.:.:.:.H C V :.:.:.:.:.:.:.:.:.:.:.:.:.:.",
":.:.:.:.:.:.:.:.:.# O O = 1 1 * 2 6 w w = < 6 w w 1 < w < :.:.:.:.:.:.:.:.:.:.:.:.:.:.:.:.:.:.:.:.:.",
":.:.:.:.:.:.:.:.:.+ O O   = = = < 6 2 6 * 1 < w e < < e < :.:.:.:.:.:.:.:.:.:.:.:.:.:.:.:.:.:.:.:.:.",
":.:.:.:.:.:.:.:.:.. < $   O O O   $ 1 < * < * = 2 < = 4 :.:.:.:.:.:.:.:.:.:.:.:.:.:.:.:.:.:.:.:.:.:.",
":.:.:.:.:.:.:.:.:.1 1 O           * 1 O   O     O = O o :.:.:.:.:.:.:.:.:.:.:.:.:.:.:.:.:.:.:.:.:.:.",
":.:.:.:.:.:.:.:.4 w =             < *             O   :.:.:.:.:.:.:.:.:.:.:.:.:.:.:.:.:.:.:.:.:.:.:.",
":.:.:.:.:.:.:.3 6 w *             $ O               + :.:.:.:.& :.:.:.:.:.:.:.:.:.:.:.:.:.:.:.:.:.:.",
":.:.:.:.:.:.:.X O 1 =                               . < :.# :.:.:.:.:.:.:.:.:.:.:.:.:.:.:.:.:.:.:.:.",
":.:.:.:.:.:.:.:.  $ *                               . :.:.:.:.:.:.:.:.:.:.:.:.:.:.:.:.:.:.:.:.:.:.:.",
":.:.:.:.:.:.:.:.# . $                         . . . . :.:.:.:.:.:.:.:.:.:.:.:.:.:.:.:.:.:.:.:.:.:.:.",
":.:.:.:.:.:.:.:.:.:.X . . + .                 . :.:.:.:.:.:.:.:.:.:.:.:.:.:.:.:.:.:.:.:.:.:.:.:.:.:.",
":.:.:.:.:.:.:.:.:.:.:.:.:.:..                 :.:.:.:.:.:.:.:.:.:.:.:.:.:.:.:.:.:.:.:.:.:.:.:.:.:.:.",
":.:.:.:.:.:.:.:.:.:.:.:.:.:..     . o . .   . :.:.:.:.:.:.:.:.:.:.:.:.:.:.:.:.:.:.:.:.:.:.:.:.:.:.:.",
":.:.:.:.:.:.:.:.:.:.:.:.:.:.:.. X . :.:.:.X < :.:.:.:.:.:.:.:.:.:.:.:.:.:.:.:.:.:.:.:.:.:.:.:.:.:.:.",
":.:.:.:.:.:.:.:.:.:.:.:.:.:.:.:.:.:.:.:.:.:.:.:.:.:.:.:.:.:.:.:.:.:.:.:.:.:.:.:.:.:.:.:.:.:.:.:.:.:.",
":.:.:.:.:.:.:.:.:.:.:.:.:.:.:.:.:.:.:.:.:.:.:.:.:.:.:.:.:.:.:.:.:.:.:.:.:.:.:.:.:.:.:.:.:.:.:.:.:.:.",
":.:.:.:.:.:.:.:.:.:.:.:.:.:.:.:.:.:.:.:.:.:.:.:.:.:.:.:.:.:.:.:.:.:.:.:.:.:.:.:.:.:.:.:.:.:.:.:.:.:.",
":.:.:.:.:.:.:.:.:.:.:.:.:.:.:.:.:.:.:.:.:.:.:.:.:.:.:.:.:.:.:.:.:.:.:.:.:.:.:.:.:.:.:.:.:.:.:.:.:.:.",
":.:.:.:.:.:.:.:.:.:.:.:.:.:.:.:.:.:.:.:.:.:.:.:.:.:.:.:.:.:.:.:.:.:.:.:.:.:.:.:.:.:.:.:.:.:.:.:.:.:."
};
