/* XPM */
static char *result[] = {
/* columns rows colors chars-per-pixel */
"50 50 94 2 ",
"   c #0D0315",
".  c #0D0415",
"X  c #0E0416",
"o  c #0F0516",
"O  c #110618",
"+  c #100619",
"@  c #11071A",
"#  c #1B0618",
"$  c #16081B",
"%  c #13081C",
"&  c #160A1E",
"*  c #23091C",
"=  c #280819",
"-  c #31091C",
";  c #380C1E",
":  c #3E0C1C",
">  c #0B0D20",
",  c #170B20",
"<  c #190B21",
"1  c #1B0D23",
"2  c #1B0D24",
"3  c #1E0F26",
"4  c #1E0F27",
"5  c #0C1225",
"6  c #0A1F35",
"7  c #201029",
"8  c #261A2E",
"9  c #52101F",
"0  c #56121D",
"q  c #57121D",
"w  c #54101E",
"e  c #5C141B",
"r  c #5D141B",
"t  c #5E141A",
"y  c #5F151A",
"u  c #5E151B",
"i  c #59131D",
"p  c #5A131C",
"a  c #58141F",
"s  c #611418",
"d  c #601519",
"f  c #621619",
"g  c #631619",
"h  c #611819",
"j  c #651A1B",
"k  c #601A1C",
"l  c #69261A",
"z  c #75271E",
"x  c #702D1E",
"c  c #7D291B",
"v  c #460D21",
"b  c #460C24",
"n  c #470C24",
"m  c #480E21",
"M  c #480C23",
"N  c #4B0D22",
"B  c #4A0D23",
"V  c #4F0F20",
"C  c #4E0E21",
"Z  c #4F0F21",
"A  c #480D24",
"S  c #500E20",
"D  c #1A2E48",
"F  c #063F58",
"G  c #39364E",
"H  c #0F425D",
"J  c #0A5675",
"K  c #234D64",
"L  c #05607D",
"P  c #07657E",
"I  c #822D1B",
"U  c #80331E",
"Y  c #983E1D",
"T  c #843F26",
"R  c #A04F29",
"E  c #A0522B",
"W  c #037392",
"Q  c #007EA0",
"!  c #0280A3",
"~  c #0388AB",
"^  c #0A8AAC",
"/  c #0095B3",
"(  c #0093B8",
")  c #009FBD",
"_  c #029BC0",
"`  c #03B6CD",
"'  c #00ADD5",
"]  c #00BAD2",
"[  c #00C1E5",
"{  c #00C8E6",
"}  c #00D0E7",
"|  c #00D8EF",
" . c #00DBF3",
".. c None",
/* pixels */
"....................................................................................................",
"....................................................................................................",
"....................................................................................................",
"....................................................................................................",
"....................................................................................................",
"....................................................................................................",
"....................................................................................................",
"....................................................................................................",
"....................................................................................................",
"....................................................................................................",
"....................................................................................................",
"....................................................................................................",
"....................................................................................................",
"..........p ..................................................................Y ....................",
"........m q A n .......................... ...................................I ....................",
"........A N N w C B M 9 ....} ) ^ ] { ( ' [ ............................b A S k Z ..................",
"......m N V M r r q w N M m ^ Q / | ` W _ _ J 0 c ............z m n v M V q w V N v V ..............",
"......M w r N w r f p M V V A ..K ` P ! F 6 5 * k j ........a r N V w q f g p M w q N b ............",
"......v p f p N t g p N p t q S G _ ~ L >   o X * w p ....n V V V f f p y f t N r g r V V ..........",
"....m N p y f V q g p V p e s s G _ W F >   & 3 O = q i Z V y w M p t f f f t N r f f r V m ........",
"....n q f f f 0 S h 0 0 f ......8 D H 6   o O 2 3 O ; C 0 0 u y V V y f f f r V y f y p t S ........",
"....S d f ....................+ 2 * : = O = # % 7 < $ ........f d C p f f h e V f f f f f y Z ......",
"..............E U ..........$ & 7 * : - : = = O 2 7 , ..............S V ....m B d f f f f h t 9 ....",
"..............x l ........1 & 3 7 & = - : - = # & 7 2 @ ......................................V ....",
"................m ......1 O % & < * V : * * O o O 7 3 4 ............................................",
".............................   X O = - O o     O 7 7 3 ............................................",
"............................. O 2 o X o o 2 O   O 7 7 3 ............................................",
"............................X 2 7 O     & 7 %   O 7 7 2 ..........T R ..............................",
"....................@ ....$ % O < O   X 2 7 &   < 7 7 2 ..........v h ..............................",
"......................... O X   o X   O 3 7 < X & % < 2 ............................................",
"........................X 2 O         X O < 2 X X   % , ............................................",
"....................... < 7 &             O <       X . ............................................",
"....................X X 3 7 <             X O         + ............................................",
"....................X & % < 2 X                       . . ..........................................",
"....................X O   X < o                       X . ..........................................",
"....................X       % o                       . ............................................",
"......................@ X   X                     X . ..............................................",
".........................                         @ ................................................",
"..........................+   . X .     X . X   X ..................................................",
"....................................X . ..... X . ..................................................",
"....................................................................................................",
"....................................................................................................",
"....................................................................................................",
"....................................................................................................",
"....................................................................................................",
"....................................................................................................",
"....................................................................................................",
"....................................................................................................",
"....................................................................................................",
"...................................................................................................."
};
