/* XPM */
static char *result[] = {
/* columns rows colors chars-per-pixel */
"50 50 95 2 ",
"   c #0C0415",
".  c #0D0415",
"X  c #0E0416",
"o  c #0E0516",
"O  c #0F0517",
"+  c #0F0518",
"@  c #0F0618",
"#  c #160617",
"$  c #110619",
"%  c #12071A",
"&  c #190719",
"*  c #1C0618",
"=  c #14091D",
"-  c #160A1F",
";  c #24081B",
":  c #270B1A",
">  c #2E091B",
",  c #29081C",
"<  c #2E081C",
"1  c #360B1C",
"2  c #360A1D",
"3  c #3A0B1F",
"4  c #3E0D1F",
"5  c #190B20",
"6  c #190C22",
"7  c #1A0D23",
"8  c #1B0D24",
"9  c #1F0F28",
"0  c #1F1029",
"q  c #220C21",
"w  c #2D1027",
"e  c #201129",
"r  c #22142B",
"t  c #2A1029",
"y  c #092035",
"u  c #4C1E19",
"i  c #51101E",
"p  c #54101E",
"a  c #55111E",
"s  c #57131E",
"d  c #5D141B",
"f  c #5D151B",
"g  c #5E141B",
"h  c #5E151B",
"j  c #58131C",
"k  c #5A131C",
"l  c #5F181A",
"z  c #611519",
"x  c #621619",
"c  c #60151A",
"v  c #611B19",
"b  c #62181D",
"n  c #631A1D",
"m  c #621A1F",
"M  c #6B1E1A",
"N  c #52201A",
"B  c #70221B",
"V  c #7F321E",
"C  c #460E22",
"Z  c #470C24",
"A  c #4B0C21",
"S  c #490E21",
"D  c #4B0E21",
"F  c #490D22",
"G  c #480C23",
"H  c #490C23",
"J  c #490D23",
"K  c #4A0D23",
"L  c #4D0E21",
"P  c #500F20",
"I  c #0D314A",
"U  c #084358",
"Y  c #1F5473",
"T  c #2E566D",
"R  c #06637C",
"E  c #964B28",
"W  c #007294",
"Q  c #047993",
"!  c #0280A3",
"~  c #0E86A4",
"^  c #0292AA",
"/  c #0091B1",
"(  c #089BB1",
")  c #0094B8",
"_  c #03A3B8",
"`  c #00ACC6",
"'  c #00A8D2",
"]  c #00BED5",
"[  c #00B2DD",
"{  c #00B5E0",
"}  c #00BFE2",
"|  c #00C6DC",
" . c #00D1E8",
".. c #01D7ED",
"X. c None",
/* pixels */
"X.X.X.X.X.X.X.X.X.X.X.X.X.X.X.X.X.X.X.X.X.X.X.X.X.X.X.X.X.X.X.X.X.X.X.X.X.X.X.X.X.X.X.X.X.X.X.X.X.X.",
"X.X.X.X.X.X.X.X.X.X.X.X.X.X.X.X.X.X.X.X.X.X.X.X.X.X.X.X.X.X.X.X.X.X.X.X.X.X.X.X.X.X.X.X.X.X.X.X.X.X.",
"X.X.X.X.X.X.X.X.X.X.X.X.X.X.X.X.X.X.X.X.X.X.X.X.X.X.X.X.X.X.X.X.X.X.X.X.X.X.X.X.X.X.X.X.X.X.X.X.X.X.",
"X.X.X.X.X.X.X.X.X.X.X.X.X.X.X.X.X.X.X.X.X.X.X.X.X.X.X.X.X.X.X.X.X.X.X.X.X.X.X.X.X.X.X.X.X.X.X.X.X.X.",
"X.X.X.X.X.X.X.X.X.X.X.X.X.X.X.X.X.X.X.X.X.X.X.X.X.X.X.X.X.X.X.X.X.X.X.X.X.X.X.X.X.X.X.X.X.X.X.X.X.X.",
"X.X.X.X.X.X.X.X.X.X.X.X.X.X.X.X.X.X.X.X.X.X.X.X.X.X.X.X.X.X.X.X.X.X.X.X.X.X.X.X.X.X.X.X.X.X.X.X.X.X.",
"X.X.X.X.X.X.X.X.X.X.X.X.X.X.X.X.X.X.X.X.X.X.X.X.X.X.X.X.X.X.X.X.X.X.X.X.X.X.X.X.X.X.X.X.X.X.X.X.X.X.",
"X.X.X.X.X.X.X.X.X.X.X.X.X.X.X.X.X.X.X.X.X.X.X.X.X.X.X.X.X.X.X.X.X.X.X.X.X.X.X.X.X.X.X.X.X.X.X.X.X.X.",
"X.X.X.X.X.X.X.X.X.X.X.X.X.X.X.X.X.X.X.X.X.X.X.X.X.X.X.X.X.X.X.X.X.X.X.X.X.X.X.X.X.X.X.X.X.X.X.X.X.X.",
"X.X.X.X.X.X.X.X.X.X.X.X.X.X.X.X.X.X.X.X.X.X.X.X.X.X.X.X.X.X.X.X.X.X.X.X.X.X.X.X.X.X.X.X.X.X.X.X.X.X.",
"X.X.X.X.X.X.X.X.X.X.X.X.X.X.X.X.X.X.X.X.X.X.X.X.X.X.X.X.X.X.X.X.X.X.X.X.X.X.X.X.X.X.X.X.X.X.X.X.X.X.",
"X.X.X.X.X.X.X.X.X.X.X.X.X.X.X.X.X.X.X.X.X.X.X.X.X.X.X.X.X.X.X.X.X.X.X.X.X.X.X.X.X.X.X.X.X.X.X.X.X.X.",
"X.X.X.X.X.X.X.X.X.X.X.X.X.X.X.X.X.X.X.X.X.X.X.X.X.X.X.X.X.X.X.X.X.X.X.X.X.X.X.X.X.X.X.X.X.X.X.X.X.X.",
"X.X.X.X.X.X.X.X.X.X.X.X.X.X.X.X.X.X.X.X.} X.X.X.X.X.X.X.X.X.X.X.X.X.X.X.X.X.X.X.X.X.X.X.X.X.X.X.X.X.",
"X.X.X.X.X.X.X.X.X.X.X.X.X.} X.X.X.X.X.X.[ X.X.X.X.X.X.X.X.X.X.X.X.X.X.X.X.X.X.X.X.X.X.X.X.X.X.X.X.X.",
"X.X.X.X.X.X.X.X.X.X.X.X.X.) ~ )  .| / ' { Y p X.X.X.X.X.X.X.X.X.X.X.X.X.X.X.X.X.X.X.X.X.X.X.X.X.X.X.",
"X.X.X.X.X.X.X.X.X.X.X.X.X.X.W ` ..( Q ! ! I i b X.X.X.X.X.X.X.X.X.X.X.X.X.X.X.X.X.X.X.X.X.X.X.X.X.X.",
"X.X.X.X.X.X.X.X.X.X.X.X.X.X.X.X._ Q ^ y O   * i P X.X.X.X.X.X.X.X.X.X.X.X.X.X.X.X.X.X.X.X.X.X.X.X.X.",
"X.X.X.X.X.X.X.X.X.X.X.X.X.X.X.~ ] _ U O   O X , L P X.X.X.X.X.X.X.X.X.X.X.X.X.X.X.X.X.X.X.X.X.X.X.X.",
"X.X.X.X.X.X.X.X.X.X.X.X.X.X.A T ( R I O   O = O 1 i h X.X.X.X.X.X.X.X.X.X.X.X.X.X.X.X.X.X.X.X.X.X.X.",
"X.X.X.X.X.X.X.X.X.X.X.X.G J C w r I =   O X - O , F s z g v c X.X.X.X.X.X.X.X.X.X.X.X.X.X.X.X.X.X.X.",
"X.X.X.X.X.X.X.X.X.X.X.J a C w 5 5 < ; O * # - $ & C s z B B k F L p X.X.X.X.X.X.X.X.X.X.X.X.X.X.X.X.",
"X.X.X.X.X.X.X.X.X.j i s F r 5 $ 5 , , 4 ; * - $ & s m s d s a k z g X.X.X.X.X.X.X.X.X.X.X.X.X.X.X.X.",
"X.X.X.X.X.E V X.P L L 4 r 7 O 7 q 1 < < ; & 5 & N B k s k z z z z z x f A J A X.X.X.X.X.X.X.X.X.X.X.",
"X.X.X.X.X.u l D H i C 9 9 7 O 9 w 4 ; O X X 5 # ; w w C L d d z z z z k L a h X.X.X.X.X.X.X.X.X.X.X.",
"X.X.X.X.X.X.S 1 a k j : X = O = $ & #       - - = 9 9 t D n d z z k n d k z z M c X.X.X.X.X.X.X.X.X.",
"X.X.X.X.X.X.3 < s x X.X..   O 7 $   X $ X O $ 7 $ $ - 0 X.f i d z k m l z z d z z x b X.a X.X.X.X.X.",
"X.X.X.X.X.S 4 1 L f X.+ X   = 9 -   = = O 7 $ 7 $   O 8 X.X.D L i F i d z k i s s a L G X.X.X.X.X.X.",
"X.X.X.X.Z F i 1 2 > o =   X $ $ - $ 7 $ O 9 = 7 5   . X.X.X.X.g s F F H K S Z A G X.X.X.X.X.X.X.X.X.",
"X.X.X.X.L i f X.X.X.X.X X       = = =   O 9 7 $ 5   % X.X.X.X.M h h G X.X.X.X.X.X.X.X.X.X.X.X.X.X.X.",
"X.X.X.S a c X.X.X.X.o   $ X     $ - O   X 5 7 $ $   . X.X.X.X.v X.X.X.X.X.X.X.X.X.X.X.X.X.X.X.X.X.X.",
"X.X.X.L a X.X.X.X.e =   - =       O         = $       . X.X.X.X.X.X.X.X.X.X.X.X.X.X.X.X.X.X.X.X.X.X.",
"X.X.X.G X.X.X.X.e 9 $   - 7 X               $ $       X.X.X.X.X.X.X.X.X.X.X.X.X.X.X.X.X.X.X.X.X.X.X.",
"X.X.X.X.X.X.X.X.6 - $   - 9 O                       . X.X.X.X.X.X.X.X.X.X.X.X.X.X.X.X.X.X.X.X.X.X.X.",
"X.X.X.X.X.X.X.X.@ O O   = =                         . X.X.X.X.X.X.X.X.X.X.X.X.X.X.X.X.X.X.X.X.X.X.X.",
"X.X.X.X.X.X.X.X.o                                   . X.X.X.X.X.X.X.X.X.X.X.X.X.X.X.X.X.X.X.X.X.X.X.",
"X.X.X.X.X.X.X.X..   . X                             o X.X.X.X.X.X.X.X.X.X.X.X.X.X.X.X.X.X.X.X.X.X.X.",
"X.X.X.X.X.X.X.X.X.+ X.X.@       . X         . . X X X.X.X.X.X.X.X.X.X.X.X.X.X.X.X.X.X.X.X.X.X.X.X.X.",
"X.X.X.X.X.X.X.X.X.X.X.X.X..     o X.+ X   X X.X.X.X.X.X.X.X.X.X.X.X.X.X.X.X.X.X.X.X.X.X.X.X.X.X.X.X.",
"X.X.X.X.X.X.X.X.X.X.X.X.X.X.. . X.X.X.X.o X.X.X.X.X.X.X.X.X.X.X.X.X.X.X.X.X.X.X.X.X.X.X.X.X.X.X.X.X.",
"X.X.X.X.X.X.X.X.X.X.X.X.X.X.X.X.X.X.X.X.X.X.X.X.X.X.X.X.X.X.X.X.X.X.X.X.X.X.X.X.X.X.X.X.X.X.X.X.X.X.",
"X.X.X.X.X.X.X.X.X.X.X.X.X.X.X.X.X.X.X.X.X.X.X.X.X.X.X.X.X.X.X.X.X.X.X.X.X.X.X.X.X.X.X.X.X.X.X.X.X.X.",
"X.X.X.X.X.X.X.X.X.X.X.X.X.X.X.X.X.X.X.X.X.X.X.X.X.X.X.X.X.X.X.X.X.X.X.X.X.X.X.X.X.X.X.X.X.X.X.X.X.X.",
"X.X.X.X.X.X.X.X.X.X.X.X.X.X.X.X.X.X.X.X.X.X.X.X.X.X.X.X.X.X.X.X.X.X.X.X.X.X.X.X.X.X.X.X.X.X.X.X.X.X.",
"X.X.X.X.X.X.X.X.X.X.X.X.X.X.X.X.X.X.X.X.X.X.X.X.X.X.X.X.X.X.X.X.X.X.X.X.X.X.X.X.X.X.X.X.X.X.X.X.X.X.",
"X.X.X.X.X.X.X.X.X.X.X.X.X.X.X.X.X.X.X.X.X.X.X.X.X.X.X.X.X.X.X.X.X.X.X.X.X.X.X.X.X.X.X.X.X.X.X.X.X.X.",
"X.X.X.X.X.X.X.X.X.X.X.X.X.X.X.X.X.X.X.X.X.X.X.X.X.X.X.X.X.X.X.X.X.X.X.X.X.X.X.X.X.X.X.X.X.X.X.X.X.X.",
"X.X.X.X.X.X.X.X.X.X.X.X.X.X.X.X.X.X.X.X.X.X.X.X.X.X.X.X.X.X.X.X.X.X.X.X.X.X.X.X.X.X.X.X.X.X.X.X.X.X.",
"X.X.X.X.X.X.X.X.X.X.X.X.X.X.X.X.X.X.X.X.X.X.X.X.X.X.X.X.X.X.X.X.X.X.X.X.X.X.X.X.X.X.X.X.X.X.X.X.X.X.",
"X.X.X.X.X.X.X.X.X.X.X.X.X.X.X.X.X.X.X.X.X.X.X.X.X.X.X.X.X.X.X.X.X.X.X.X.X.X.X.X.X.X.X.X.X.X.X.X.X.X."
};
