/* XPM */
static char *result[] = {
/* columns rows colors chars-per-pixel */
"50 50 100 2 ",
"   c #0D0315",
".  c #0C0415",
"X  c #0D0415",
"o  c #0E0416",
"O  c #140416",
"+  c #150516",
"@  c #110619",
"#  c #12071A",
"$  c #140619",
"%  c #1B0618",
"&  c #15091D",
"*  c #23071A",
"=  c #26071C",
"-  c #2A0919",
";  c #2B091D",
":  c #300B17",
">  c #300B1B",
",  c #310B1B",
"<  c #351317",
"1  c #0E0F22",
"2  c #180A20",
"3  c #1A0D24",
"4  c #1F0F27",
"5  c #0C162A",
"6  c #200B21",
"7  c #220B21",
"8  c #280F27",
"9  c #370B22",
"0  c #3D0C20",
"q  c #2E1026",
"w  c #221028",
"e  c #20112A",
"r  c #2C1028",
"t  c #301127",
"y  c #092438",
"u  c #410D1D",
"i  c #490E1E",
"p  c #471519",
"a  c #53101F",
"s  c #57121D",
"d  c #55111E",
"f  c #55111F",
"g  c #5F141A",
"h  c #5F151A",
"j  c #5E151B",
"k  c #59131C",
"l  c #5A131D",
"z  c #5C141C",
"x  c #601519",
"c  c #611619",
"v  c #621619",
"b  c #651D1F",
"n  c #691D1D",
"m  c #64231A",
"M  c #64271C",
"N  c #6D221A",
"B  c #772A1C",
"V  c #7B341E",
"C  c #470C23",
"Z  c #460D23",
"A  c #470C24",
"S  c #490C20",
"D  c #4B0E21",
"F  c #480D22",
"G  c #490D23",
"H  c #4B0E22",
"J  c #4E0E21",
"K  c #4F0F21",
"L  c #4C0D22",
"P  c #500F20",
"I  c #561720",
"U  c #102940",
"Y  c #3C2840",
"T  c #07435C",
"R  c #0A5770",
"E  c #21536B",
"W  c #87311C",
"Q  c #934826",
"!  c #9A4B29",
"~  c #B86332",
"^  c #026D87",
"/  c #007697",
"(  c #0081A4",
")  c #0189AE",
"_  c #0298B8",
"`  c #03A3B9",
"'  c #00A5BE",
"]  c #0099C0",
"[  c #00A5CF",
"{  c #00B1CE",
"}  c #01AED1",
"|  c #00B3D6",
" . c #01BDD7",
".. c #00B2DD",
"X. c #00B3DE",
"o. c #01C4DC",
"O. c #00C3E7",
"+. c #00C4E4",
"@. c #00DCF3",
"#. c None",
/* pixels */
"#.#.#.#.#.#.#.#.#.#.#.#.#.#.#.#.#.#.#.#.#.#.#.#.#.#.#.#.#.#.#.#.#.#.#.#.#.#.#.#.#.#.#.#.#.#.#.#.#.#.",
"#.#.#.#.#.#.#.#.#.#.#.#.#.#.#.#.#.#.#.#.#.#.#.#.#.#.#.#.#.#.#.#.#.#.#.#.#.#.#.#.#.#.#.#.#.#.#.#.#.#.",
"#.#.#.#.#.#.#.#.#.#.#.#.#.#.#.#.#.#.#.#.#.#.#.#.#.#.#.#.#.#.#.#.#.#.#.#.#.#.#.#.#.#.#.#.#.#.#.#.#.#.",
"#.#.#.#.#.#.#.#.#.#.#.#.#.#.#.#.#.#.#.#.#.#.#.#.#.#.#.#.#.#.#.#.#.#.#.#.#.#.#.#.#.#.#.#.#.#.#.#.#.#.",
"#.#.#.#.#.#.#.#.#.#.#.#.#.#.#.#.#.#.#.#.#.#.#.#.#.#.#.#.#.#.#.#.#.#.#.#.#.#.#.#.#.#.#.#.#.#.#.#.#.#.",
"#.#.#.#.#.#.#.#.#.#.#.#.#.#.#.#.#.#.#.#.#.#.#.#.#.#.#.#.#.#.#.#.#.#.#.#.#.#.#.#.#.#.#.#.#.#.#.#.#.#.",
"#.#.#.#.#.#.#.#.#.#.#.#.#.#.#.#.#.#.#.#.#.#.#.#.#.#.#.#.#.#.#.#.#.#.#.#.#.#.#.#.#.#.#.#.#.#.#.#.#.#.",
"#.#.#.#.#.#.#.#.#.#.#.#.#.#.#.#.#.#.#.#.#.#.#.#.#.#.#.#.#.#.#.#.#.#.#.#.#.#.#.#.#.#.#.#.#.#.#.#.#.#.",
"#.#.#.#.#.#.#.#.#.#.#.#.#.#.#.#.#.#.#.#.#.#.#.#.#.#.#.#.#.#.#.#.#.#.#.#.#.#.#.#.#.#.#.#.#.#.#.#.#.#.",
"#.#.#.#.#.#.#.#.#.#.#.#.#.#.#.#.#.#.#.#.#.#.#.#.#.#.#.#.#.#.#.#.#.#.#.#.#.#.#.#.#.#.#.#.#.#.#.#.#.#.",
"#.#.#.#.#.#.#.#.#.#.#.#.#.#.#.#.#.#.#.#.#.#.#.#.#.#.#.#.#.#.#.#.#.#.#.#.#.#.#.#.#.#.#.#.#.#.#.#.#.#.",
"#.#.#.#.#.#.#.#.#.#.#.#.#.#.#.#.#.#.#.#.#.#.#.#.#.#.#.#.#.#.#.#.#.#.#.#.#.#.#.#.#.#.#.#.#.#.#.#.#.#.",
"#.#.#.#.#.#.#.#.#.#.#.#.#.#.#.#.#.#.#.#.#.#.#.#...#.#.#.#.#.#.#.#.#.#.#.#.#.#.#.#.#.#.#.#.#.#.#.#.#.",
"#.#.#.#.#.#.#.#.#.#.#.#.#.#.#.#.[ #.#.#.#.#.#.#.| #.#.#.#.#.#.#.#.#.#.#.#.#.#.#.#.#.#.#.#.#.#.#.#.#.",
"#.#.#.#.#.#.#.#.#.#.#.#.#.#.#.#.] ( +.@.@.' { } X.#.S #.#.#.#.#.#.#.#.#.#.#.#.#.#.#.#.#.#.#.#.#.#.#.",
"#.#.#.#.#.#.#.#.#.#.#.#.#.#.#.#.[ / | O. .^ _ ) _ U D n #.#.#.#.#.#.#.#.#.#.#.#.#.#.#.#.#.#.#.#.#.#.",
"#.#.#.#.#.#.#.#.#.#.#.#.#.#.#.#.#.#.#.} R ` ^ y 5 & , b j #.#.#.#.#.#.#.#.#.#.#.#.#.#.#.#.#.#.#.#.#.",
"#.#.#.#.#.#.#.#.#.#.#.#.#.#.#.#.#.#.#. .` _ y     @ 6 F l #.#.#.#.#.#.#.#.#.#.#.#.#.#.#.#.#.#.#.#.#.",
"#.#.#.#.#.#.#.#.#.#.#.#.#.#.#.#.#.#.#.o.` T y   @ & & 9 d #.#.#.#.#.#.#.#.#.#.#.#.#.#.#.#.#.#.#.#.#.",
"#.#.#.#.#.#.#.#.#.#.#.#.#.#.#.#.#.#.Y E R T 1   o 2 3 * F A #.#.#.#.#.#.#.#.#.#.#.#.#.#.#.#.#.#.#.#.",
"#.#.#.#.#.#.#.#.#.#.#.#.#.#.#.#.#.Z 9 6 1 2   o % & w 9 F J #.#.#.#.#.#.#.#.#.#.#.#.#.#.#.#.#.#.#.#.",
"#.#.#.#.#.#.#.#.#.#.#.#.#.#.#.#.A 0 w @ O , O O O % 9 F s c v v #.#.#.#.#.#.#.#.#.#.#.#.#.#.#.#.#.#.",
"#.#.#.#.#.#.#.#.#.#.#.#.#.#.Z r q w 2   % * , I < 0 P d k g v v v #.#.#.#.#.#.#.#.#.#.#.#.#.#.#.#.#.",
"#.#.#.#.#.#.#.#.W #.#.#.#.7 w 4 e 3 o   * - , N B b k v c c v v v v #.#.#.#.#.#.#.#.#.#.#.#.#.#.#.#.",
"#.#.#.#.#.#.#.Q N #.#.#.#.# o @ 2 o     - 9 O - k b D P k g c v v v #.#.#.#.#.#.#.#.#.#.#.#.#.#.#.#.",
"#.#.#.#.#.#.#.M m #.#.#.#.#.; O o       O %   % D z k s d a a a a z h #.#.#.#.#.#.#.#.#.#.#.#.#.#.#.",
"#.#.#.#.#.#.#.#.#.X #.#.#.#.P ,     @ @     @ 6 D g v v v c g z s a P K #.#.#.#.#.#.#.#.#.#.#.#.#.#.",
"#.#.#.#.#.#.#.#.#.#.#.#.#.; q 6     @ &   @ 3 8 D g g v v v v v v v g k Z #.#.#.#.#.#.#.#.#.#.#.#.#.",
"#.#.#.#.#.#.#.#.#.#.#.#.> 4 e &     o 2 & 4 e 8 F d z v v v v v v v v x #.#.! ~ #.#.#.#.#.#.#.#.#.#.",
"#.#.#.#.#.#.#.#.#.X #.+ $ @ 3 @       2 e e e 8 F g v v v c v v v v v v #.#.p V #.#.#.#.#.#.#.#.#.#.",
"#.#.#.#.#.#.#.#.#.#.+ = *   @ o       o & 2 4 6 F g v v z g v v v c g f C + i > #.#.#.#.#.#.#.#.#.#.",
"#.#.#.#.#.#.#.#.#.#.#.L * & 2             2 3 % F z v c d s s s a a a f #.#.#.#.#.#.#.#.#.#.#.#.#.#.",
"#.#.#.#.#.#.#.#.#.x f D 8 4 @           @ 3 o * I z P P D P a s z g v v #.#.#.#.#.#.#.#.#.#.#.#.#.#.",
"#.#.#.#.#.#.#.#.#.#.#.t e 3 o           @ 2 < B B b D P k g v v v v v j #.#.#.#.#.#.#.#.#.#.#.#.#.#.",
"#.#.#.#.#.#.#.#.#.#.#.$ 2 3               o - p k I P c v v v v v v v v #.X #.#.#.#.#.#.#.#.#.#.#.#.",
"#.#.#.#.#.#.#.#.#.#.#.X   & o                   % 9 D k v c g v v v v u #.#.#.#.#.#.#.#.#.#.#.#.#.#.",
"#.#.#.#.#.#.#.#.#.#.#.#.. o                       O * 0 a s z v v v c : #.#.#.#.#.#.#.#.#.#.#.#.#.#.",
"#.#.#.#.#.#.#.#.#.#.#.#.#.X o   o o                 . 7 Z J s v v v v #.#.#.#.#.#.#.#.#.#.#.#.#.#.#.",
"#.#.#.#.#.#.#.#.#.#.#.#.#.#.#.> 0 -                 X #.#.#.G d c v v v #.#.#.#.#.#.#.#.#.#.#.#.#.#.",
"#.#.#.#.#.#.#.#.#.#.#.#.#.#.#.#.S 9 o     X # X     X #.#.#.#.K P g v j #.#.#.#.#.#.#.#.#.#.#.#.#.#.",
"#.#.#.#.#.#.#.#.#.#.#.#.#.#.#.#.#.u - $ . #.#.#.X X #.#.#.#.#.#.i D z v #.#.#.#.#.#.#.#.#.#.#.#.#.#.",
"#.#.#.#.#.#.#.#.#.#.#.#.#.#.#.#.#.#.#.S #.#.#.#.#.#.#.#.#.#.#.#.#.C H L #.#.#.#.#.#.#.#.#.#.#.#.#.#.",
"#.#.#.#.#.#.#.#.#.#.#.#.#.#.#.#.#.#.#.#.#.#.#.#.#.#.#.#.#.#.#.#.#.#.#.#.#.#.#.#.#.#.#.#.#.#.#.#.#.#.",
"#.#.#.#.#.#.#.#.#.#.#.#.#.#.#.#.#.#.#.#.#.#.#.#.#.#.#.#.#.#.#.#.#.#.#.#.#.#.#.#.#.#.#.#.#.#.#.#.#.#.",
"#.#.#.#.#.#.#.#.#.#.#.#.#.#.#.#.#.#.#.#.#.#.#.#.#.#.#.#.#.#.#.#.#.#.#.#.#.#.#.#.#.#.#.#.#.#.#.#.#.#.",
"#.#.#.#.#.#.#.#.#.#.#.#.#.#.#.#.#.#.#.#.#.#.#.#.#.#.#.#.#.#.#.#.#.#.#.#.#.#.#.#.#.#.#.#.#.#.#.#.#.#.",
"#.#.#.#.#.#.#.#.#.#.#.#.#.#.#.#.#.#.#.#.#.#.#.#.#.#.#.#.#.#.#.#.#.#.#.#.#.#.#.#.#.#.#.#.#.#.#.#.#.#.",
"#.#.#.#.#.#.#.#.#.#.#.#.#.#.#.#.#.#.#.#.#.#.#.#.#.#.#.#.#.#.#.#.#.#.#.#.#.#.#.#.#.#.#.#.#.#.#.#.#.#.",
"#.#.#.#.#.#.#.#.#.#.#.#.#.#.#.#.#.#.#.#.#.#.#.#.#.#.#.#.#.#.#.#.#.#.#.#.#.#.#.#.#.#.#.#.#.#.#.#.#.#.",
"#.#.#.#.#.#.#.#.#.#.#.#.#.#.#.#.#.#.#.#.#.#.#.#.#.#.#.#.#.#.#.#.#.#.#.#.#.#.#.#.#.#.#.#.#.#.#.#.#.#."
};
