/* XPM */
static char *result[] = {
/* columns rows colors chars-per-pixel */
"50 50 90 1 ",
"  c #0D0314",
". c #0D0415",
"X c #0D0416",
"o c #0E0416",
"O c #0F0517",
"+ c #120516",
"@ c #150517",
"# c #110619",
"$ c #1C071A",
"% c #12081B",
"& c #14081D",
"* c #160A1F",
"= c #220817",
"- c #230719",
"; c #2A081C",
": c #2F091C",
"> c #2D0B1F",
", c #3F0E17",
"< c #370C1F",
"1 c #3E0D1D",
"2 c #190C22",
"3 c #1B0D24",
"4 c #0A1528",
"5 c #1E1028",
"6 c #250E22",
"7 c #2C1027",
"8 c #21112A",
"9 c #21112B",
"0 c #331724",
"q c #0B2438",
"w c #400D1F",
"e c #461718",
"r c #46111C",
"t c #54111B",
"y c #53111E",
"u c #57121D",
"i c #56111E",
"p c #5F1519",
"a c #5D141B",
"s c #5C151B",
"d c #5A131C",
"f c #5B141C",
"g c #5B161F",
"h c #621619",
"j c #61161A",
"k c #61171C",
"l c #611A1A",
"z c #651A1B",
"x c #62191D",
"c c #5B261B",
"v c #6B221B",
"b c #70211A",
"n c #74261C",
"m c #470C23",
"M c #470C24",
"N c #480D20",
"B c #490D23",
"V c #4B0D22",
"C c #4B0E22",
"Z c #4C0E21",
"A c #4D0E21",
"S c #4C0E22",
"D c #500F20",
"F c #431932",
"G c #4C2125",
"H c #093249",
"J c #0D3C50",
"K c #065069",
"L c #1A5F79",
"P c #89331C",
"I c #893B21",
"U c #A0572F",
"Y c #006280",
"T c #056988",
"R c #037591",
"E c #007D99",
"W c #0884A1",
"Q c #0389AE",
"! c #0092AC",
"~ c #098EB5",
"^ c #0191B0",
"/ c #009FC2",
"( c #00B2DB",
") c #00B2DD",
"_ c #00B4DE",
"` c #00BAE2",
"' c #00C2E1",
"] c #00CDE4",
"[ c #00D8F0",
"{ c None",
/* pixels */
"{{{{{{{{{{{{{{{{{{{{{{{{{{{{{{{{{{{{{{{{{{{{{{{{{{",
"{{{{{{{{{{{{{{{{{{{{{{{{{{{{{{{{{{{{{{{{{{{{{{{{{{",
"{{{{{{{{{{{{{{{{{{{{{{{{{{{{{{{{{{{{{{{{{{{{{{{{{{",
"{{{{{{{{{{{{{{{{{{{{{{{{{{{{{{{{{{{{{{{{{{{{{{{{{{",
"{{{{{{{{{{{{{{{{{{{{{{{{{{{{{{{{{{{{{{{{{{{{{{{{{{",
"{{{{{{{{{{{{{{{{{{{{{{{{{{{{{{{{{{{{{{{{{{{{{{{{{{",
"{{{{{{{{{{{{{{{{{{{{{{{{{{{{{{{{{{{{{{{{{{{{{{{{{{",
"{{{{{{{{{{{{{{{{{{{{{{{{{{{{{{{{{{{{{{{{{{{{{{{{{{",
"{{{{{{{{{{{{{{{{{{{{{{{{{{{{{{{{{{{{{{{{{{{{{{{{{{",
"{{{{{{{{{{{{{{{{{{{{{{{{{{{{{{{{{{{{{{{{{{{{{{{{{{",
"{{{{{{{{{{{{{{{{{{{{{{{{{{{{{{{{{{{{{{{{{{{{{{{{{{",
"{{{{{{{{{{{{{{{{{{{{{{{{{{{{{{{{{{{{{{{{{{{{{{{{{{",
"{{{{{{{{{{{{{{{{{{{{{{{{{{{{{{{{{{{{{{{{{{{{{{{{{{",
"{{{{{{{{{{{{{{{{{{{{{){{{{{{{{{{{{{{{{{{{{{{{{{{{{",
"{{{{{{{{{{{{{{Y{{{[{{_{{{{{{{{{{{{{{{{{{{{{{{{{{{{",
"{{{{{{{{{{{{{{E]'`^/'`Lt{{{{{{{{{{{{{{{{{{{{{{{{{{",
"{{{{{{{{{{{{{{!{(/RWRTJrz{{{{{{{{{{{{{{{{{{{{{{{{{",
"{{{{{{{{{{{{{{{{QTWR4 .@ra{{{{{{{{{{{{{{{{{{{{{{{{",
"{{{{{{{{{{{{{{{{~/WHX..#$ZV{{{{{{{{{{{{{{{{{{{{{{{",
"{{{{{{{{{{{{{{{FW^KH...*#;Zd{{{{{{{{{{{{{{{{{{{{{{",
"{{{{{{{{{{{{{MAw5qH% O@*2$miahk{{{{{{{{{{{{{{{{{{{",
"{{{{{{{{{{{MAiy6O-<@@-@%5&<DphvbiABB{{{{{{{{{{{{{{",
"{{{{{{{{{dNDar$5#-;:w--@52<ggxxgDyaj{{{{{{{{{{{{{{",
"{{{{{UI{{ADy<*29&@=:w:$$50vvgydahhhha{{{S{{{{{{{{{",
"{{{{{cvsBZm75&22&:r:;;@#5GrwZZahphhhhpAmd{{{{{{{{{",
"{{{{{{l1Zir$*####$:-....29**>VyaahpapdDahz{{{{{{{{",
"{{{{{{>:daf,oO2#..OOX%.X393&8{kxdhhdvxahhhxj{{{{{{",
"{{{{{Bw:yl{{X38&....%3XO553*8{{SZdpygahhaahhpSMM{{",
"{{{{{mZ;wt{XO22*....25#O3%#28{{{MZZmDddiDDyyBS{{{{",
"{{{{NZpN>+..&XX&X..%85#O%.O3{{{{{fgmmMNMMC{{{{{{{{",
"{{{Mmis{{{{.O..O...*35#.X..o{{{{{njC{{{{{{{{{{{{{{",
"{{{Zf{{{{{.#3#......X2&......{{{Pe{{{{{{{{{{{{{{{{",
"{{Mu{{{{{{.38*.......%&.......{{{{{{{{{{{{{{{{{{{{",
"{{M{{{{{{.*88*.......XO.....O{{{{{{{{{{{{{{{{{{{{{",
"{{{{{{{{.#*&5*...............{{{{{{{{{{{{{{{{{{{{{",
"{{{{{{{{.OX.%&...............{{{{{{{{{{{{{{{{{{{{{",
"{{{{{{{{.....X..............{{{{{{{{{{{{{{{{{{{{{{",
"{{{{{{{{{...................{{{{{{{{{{{{{{{{{{{{{{",
"{{{{{{{{{{{...............+{{{{{{{{{{{{{{{{{{{{{{{",
"{{{{{{{{{{{...............{{{{{{{{{{{{{{{{{{{{{{{{",
"{{{{{{{{{{{{.+.{{O.o.....{{{{{{{{{{{{{{{{{{{{{{{{{",
"{{{{{{{{{{{{{{{{{{.{{{{{{{{{{{{{{{{{{{{{{{{{{{{{{{",
"{{{{{{{{{{{{{{{{{{{{{{{{{{{{{{{{{{{{{{{{{{{{{{{{{{",
"{{{{{{{{{{{{{{{{{{{{{{{{{{{{{{{{{{{{{{{{{{{{{{{{{{",
"{{{{{{{{{{{{{{{{{{{{{{{{{{{{{{{{{{{{{{{{{{{{{{{{{{",
"{{{{{{{{{{{{{{{{{{{{{{{{{{{{{{{{{{{{{{{{{{{{{{{{{{",
"{{{{{{{{{{{{{{{{{{{{{{{{{{{{{{{{{{{{{{{{{{{{{{{{{{",
"{{{{{{{{{{{{{{{{{{{{{{{{{{{{{{{{{{{{{{{{{{{{{{{{{{",
"{{{{{{{{{{{{{{{{{{{{{{{{{{{{{{{{{{{{{{{{{{{{{{{{{{",
"{{{{{{{{{{{{{{{{{{{{{{{{{{{{{{{{{{{{{{{{{{{{{{{{{{"
};
