/* XPM */
static char *result[] = {
/* columns rows colors chars-per-pixel */
"50 50 95 2 ",
"   c #0D0315",
".  c #0C0415",
"X  c #0D0415",
"o  c #0D0516",
"O  c #0E0416",
"+  c #0E0516",
"@  c #0F0517",
"#  c #100515",
"$  c #190617",
"%  c #1C0616",
"&  c #100619",
"*  c #150518",
"=  c #1C0619",
"-  c #1E0718",
";  c #13081B",
":  c #160A1E",
">  c #160A1F",
",  c #25071A",
"<  c #2D081B",
"1  c #350A1C",
"2  c #170B20",
"3  c #180B21",
"4  c #1A0C23",
"5  c #1E0F27",
"6  c #0A162A",
"7  c #1F1028",
"8  c #201029",
"9  c #21112A",
"0  c #22112A",
"q  c #391025",
"w  c #1B283E",
"e  c #4F0F1F",
"r  c #510F1F",
"t  c #52101F",
"y  c #57121D",
"u  c #55111E",
"i  c #5B131B",
"p  c #5C121A",
"a  c #5F1619",
"s  c #5C141B",
"d  c #5E141A",
"f  c #5F151A",
"g  c #59131C",
"h  c #58121D",
"j  c #59131D",
"k  c #5F1819",
"l  c #681816",
"z  c #611519",
"x  c #611619",
"c  c #621619",
"v  c #60151A",
"b  c #631A1A",
"n  c #651A19",
"m  c #6D201C",
"M  c #712C1A",
"N  c #7B2B1C",
"B  c #7D331D",
"V  c #470A22",
"C  c #470C23",
"Z  c #470C24",
"A  c #480D21",
"S  c #490C22",
"D  c #480C23",
"F  c #490C23",
"G  c #490D23",
"H  c #4D0E21",
"J  c #4F0F20",
"K  c #4F0F21",
"L  c #4C0E22",
"P  c #501020",
"I  c #521020",
"U  c #713522",
"Y  c #0A3349",
"T  c #045974",
"R  c #234A65",
"E  c #255D7C",
"W  c #923A1C",
"Q  c #804025",
"!  c #B96232",
"~  c #037293",
"^  c #03819A",
"/  c #208198",
"(  c #0382A3",
")  c #008BA7",
"_  c #0095B2",
"`  c #0196BD",
"'  c #00A2CB",
"]  c #04A8CD",
"[  c #00B4E0",
"{  c #00CEE5",
"}  c #01C7E8",
"|  c #00CBEA",
" . c #00CDE8",
".. c #00DEF5",
"X. c None",
/* pixels */
"X.X.X.X.X.X.X.X.X.X.X.X.X.X.X.X.X.X.X.X.X.X.X.X.X.X.X.X.X.X.X.X.X.X.X.X.X.X.X.X.X.X.X.X.X.X.X.X.X.X.",
"X.X.X.X.X.X.X.X.X.X.X.X.X.X.X.X.X.X.X.X.X.X.X.X.X.X.X.X.X.X.X.X.X.X.X.X.X.X.X.X.X.X.X.X.X.X.X.X.X.X.",
"X.X.X.X.X.X.X.X.X.X.X.X.X.X.X.X.X.X.X.X.X.X.X.X.X.X.X.X.X.X.X.X.X.X.X.X.X.X.X.X.X.X.X.X.X.X.X.X.X.X.",
"X.X.X.X.X.X.X.X.X.X.X.X.X.X.X.X.X.X.X.X.X.X.X.X.X.X.X.X.X.X.X.X.X.X.X.X.X.X.X.X.X.X.X.X.X.X.X.X.X.X.",
"X.X.X.X.X.X.X.X.X.X.X.X.X.X.X.X.X.X.X.X.X.X.X.X.X.X.X.X.X.X.X.X.X.X.X.X.X.X.X.X.X.X.X.X.X.X.X.X.X.X.",
"X.X.X.X.X.X.X.X.X.X.X.X.X.X.X.X.X.X.X.X.X.X.X.X.X.X.X.X.X.X.X.X.X.X.X.X.X.X.X.X.X.X.X.X.X.X.X.X.X.X.",
"X.X.X.X.X.X.X.X.X.X.X.X.X.X.X.X.X.X.X.X.X.X.X.X.X.X.X.X.X.X.X.X.X.X.X.X.X.X.X.X.X.X.X.X.X.X.X.X.X.X.",
"X.X.X.X.X.X.X.X.X.X.X.X.X.X.X.X.X.X.X.X.X.X.X.X.X.X.X.X.X.X.X.X.X.X.X.X.X.X.X.X.X.X.X.X.X.X.X.X.X.X.",
"X.X.X.X.X.X.X.X.X.X.X.X.X.X.X.X.X.X.X.X.X.X.X.X.X.X.X.X.X.X.X.X.X.X.X.X.X.X.X.X.X.X.X.X.X.X.X.X.X.X.",
"X.X.X.X.X.X.X.X.X.X.X.X.X.X.X.X.X.X.X.X.X.X.X.X.X.X.X.X.X.X.X.X.X.X.X.X.X.X.X.X.X.X.X.X.X.X.X.X.X.X.",
"X.X.X.X.X.X.X.X.X.X.X.X.X.X.X.X.X.X.X.X.X.X.X.X.X.X.X.X.X.X.X.X.X.X.X.X.X.X.X.X.X.X.X.X.X.X.X.X.X.X.",
"X.X.X.X.X.X.X.X.X.X.X.X.X.X.X.X.X.X.X.X.X.X.X.X.X.X.X.X.X.X.X.X.X.X.X.X.X.X.X.X.X.X.X.X.X.X.X.X.X.X.",
"X.X.X.X.X.X.X.X.X.X.X.X.X.X.X.X.X.X.X.X.X.X.X.X.X.X.X.X.X.X.X.X.X.X.X.X.X.X.X.X.X.X.X.X.X.X.X.X.X.X.",
"X.X.X.X.X.X.X.X.X.X.X.X.X.X.X.X.X.X.X.X.X.X.X.X.X.X.X.X.X.X.X.X.X.X.X.X.X.X.X.X.X.X.X.X.X.X.X.X.X.X.",
"X.X.X.X.X.y X.X.X.X.X.X.X.X.X.X.X.X.X.X.X.X.X.X.X.X.X.X.X.X.X.X.X.X.X.X.X.X.X.X.X.X.X.X.X.X.X.X.X.X.",
"X.X.X.X.X.d I X.X.X.X.X.X.X.X.X.X.X.X.X.X.X.} X.X.X.X.X.X.X.X.X.X.X.X.X.X.X.X.X.W X.X.X.X.X.X.X.X.X.",
"X.X.X.X.X.J H A D D X.y X.X.X.) X.X.X.X.X.X.| X.X.X.X.X.X.X.X.X.X.X.X.X.X.X.X.P m b X.X.X.X.X.X.X.X.",
"X.X.X.X.Z A A t d t H H r X.X.{ {  .[ ` _  ...X.l X.X.X.X.X.X.X.X.X.X.V G D A e h t C X.X.X.X.X.X.X.",
"X.X.X.X.D u H H v i v e A D G / } ] ' ~ ^ ^ ^ Y e N X.X.X.X.X.X.m C F A H h v i A H e F X.X.X.X.X.X.",
"X.X.X.V e c i H i v c t H i u D V R ( ~ ~ 6     * A x X.X.X.X.K h e h v h v c v H t c h F X.X.X.X.X.",
"X.X.X.Z e d c u e c c t H h d i e E ' ( Y O O ; O $ A a X.X.D u t H v c v v c c H u c c i J X.X.X.X.",
"X.X.X.F i v c i H v c t h z b n p R ~ T Y O   & : O 8 e u H t v i A t i c c c c H h c c d u J X.X.X.",
"X.X.V u z d a n G p k r s X.X.X.X.o : w & O = * : ; 5 q S g g f x h H d c c c c e d c c i v v J X.X.",
"X.X.G g X.X.X.X.X.X.X.X.X.X.X.7 + . < A , - , - : 3 5 0 X.X.X.X.X.X.J t x f k a H d c z x z c i L X.",
"X.X.X.X.X.X.X.X.Q N X.X.X.X.9 8 O   - < 1 e < < * 3 5 9 X.X.X.X.X.X.X.S P X.X.X.S s X.X.X.X.c a j G ",
"X.X.X.X.X.X.X.X.M b X.X.X.0 8 4 O   $ 1 1 1 < , * 4 5 8 2 X.X.X.X.X.X.X.X.X.X.X.X.X.X.X.X.X.X.X.X.D ",
"X.X.X.X.X.X.X.X.X.# X.X.X.9 9 4     , A < = $ O O 3 4 8 9 X.X.X.X.X.X.X.X.X.X.X.X.X.X.X.X.X.X.X.X.X.",
"X.X.X.X.X.X.X.X.X.X.X.X.X.X.X.4   & * , , O   & O 3 4 8 8 X.X.X.X.X.X.X.X.X.X.X.X.X.X.X.X.X.X.X.X.X.",
"X.X.X.X.X.X.X.X.X.X.X.X.X.X.X.&   4 :     & & 4 & : ; O : X.X.X.X.X.! X.X.X.X.X.X.X.X.X.X.X.X.X.X.X.",
"X.X.X.X.X.X.X.X.X.X.# # X.X.@   & 8 :   O 3 & 8 : 3 3   & X.X.X.X.k U B X.X.X.X.X.X.X.X.X.X.X.X.X.X.",
"X.X.X.X.X.X.X.X.X.X.X.X.> 8 &   & 4 3   & : O 8 5 & 3 &   X.X.X.X.% a n X.X.X.X.X.X.X.X.X.X.X.X.X.X.",
"X.X.X.X.X.X.X.X.X.X.X.X.X.4 O     O ; O ; & O 8 5 O & : X X.X.X.X.X.X.X.X.X.X.X.X.X.X.X.X.X.X.X.X.X.",
"X.X.X.X.X.X.X.X.X.X.X.X.>   : &     & O : O O 5 8 & O : @ X.X.X.X.X.X.X.X.X.X.X.X.X.X.X.X.X.X.X.X.X.",
"X.X.X.X.X.X.X.X.X.X.X.7 3   3 4 O     O ;     O : &   O & X.X.X.X.X.X.X.X.X.X.X.X.X.X.X.X.X.X.X.X.X.",
"X.X.X.X.X.X.X.X.X.X.X.9 3   3 8 ;                 O     + X.X.X.X.X.X.X.X.X.X.X.X.X.X.X.X.X.X.X.X.X.",
"X.X.X.X.X.X.X.X.X.X.7 8 ;   ; 8 5 O                     X 2 X.X.X.X.X.X.X.X.X.X.X.X.X.X.X.X.X.X.X.X.",
"X.X.X.X.X.X.X.X.X.X.& : ;   ; 8 8 ;                     X X X.X.X.X.X.X.X.X.X.X.X.X.X.X.X.X.X.X.X.X.",
"X.X.X.X.X.X.X.X.X.X.o O O   ; 4 &                       & X.X.X.X.X.X.X.X.X.X.X.X.X.X.X.X.X.X.X.X.X.",
"X.X.X.X.X.X.X.X.X.X.X   . .                             X X.X.X.X.X.X.X.X.X.X.X.X.X.X.X.X.X.X.X.X.X.",
"X.X.X.X.X.X.X.X.X.X.X.X X.X.X                   . X   X X.X.X.X.X.X.X.X.X.X.X.X.X.X.X.X.X.X.X.X.X.X.",
"X.X.X.X.X.X.X.X.X.X.X.X.X.X.X.@     X X.# +   . X.X.X.X.X.X.X.X.X.X.X.X.X.X.X.X.X.X.X.X.X.X.X.X.X.X.",
"X.X.X.X.X.X.X.X.X.X.X.X.X.X.X.X.X X X.X.X.X.X X X.X.X.X.X.X.X.X.X.X.X.X.X.X.X.X.X.X.X.X.X.X.X.X.X.X.",
"X.X.X.X.X.X.X.X.X.X.X.X.X.X.X.X.X.X.X.X.X.X.X.X.X.X.X.X.X.X.X.X.X.X.X.X.X.X.X.X.X.X.X.X.X.X.X.X.X.X.",
"X.X.X.X.X.X.X.X.X.X.X.X.X.X.X.X.X.X.X.X.X.X.X.X.X.X.X.X.X.X.X.X.X.X.X.X.X.X.X.X.X.X.X.X.X.X.X.X.X.X.",
"X.X.X.X.X.X.X.X.X.X.X.X.X.X.X.X.X.X.X.X.X.X.X.X.X.X.X.X.X.X.X.X.X.X.X.X.X.X.X.X.X.X.X.X.X.X.X.X.X.X.",
"X.X.X.X.X.X.X.X.X.X.X.X.X.X.X.X.X.X.X.X.X.X.X.X.X.X.X.X.X.X.X.X.X.X.X.X.X.X.X.X.X.X.X.X.X.X.X.X.X.X.",
"X.X.X.X.X.X.X.X.X.X.X.X.X.X.X.X.X.X.X.X.X.X.X.X.X.X.X.X.X.X.X.X.X.X.X.X.X.X.X.X.X.X.X.X.X.X.X.X.X.X.",
"X.X.X.X.X.X.X.X.X.X.X.X.X.X.X.X.X.X.X.X.X.X.X.X.X.X.X.X.X.X.X.X.X.X.X.X.X.X.X.X.X.X.X.X.X.X.X.X.X.X.",
"X.X.X.X.X.X.X.X.X.X.X.X.X.X.X.X.X.X.X.X.X.X.X.X.X.X.X.X.X.X.X.X.X.X.X.X.X.X.X.X.X.X.X.X.X.X.X.X.X.X.",
"X.X.X.X.X.X.X.X.X.X.X.X.X.X.X.X.X.X.X.X.X.X.X.X.X.X.X.X.X.X.X.X.X.X.X.X.X.X.X.X.X.X.X.X.X.X.X.X.X.X."
};
