/* XPM */
static char *result[] = {
/* columns rows colors chars-per-pixel */
"50 50 111 2 ",
"   c #BF0415",
".  c None",
"X  c #AB0021",
"o  c #A0012A",
"O  c #A4052A",
"+  c #B52E33",
"@  c #C5060F",
"#  c #CD0208",
"$  c #CE0409",
"%  c #CE0509",
"&  c #D00A0A",
"*  c #D20F09",
"=  c #D81606",
"-  c #D2140C",
";  c #D4190C",
":  c #CC1D15",
">  c #DB2206",
",  c #DC3208",
"<  c #DB3B0E",
"1  c #D62615",
"2  c #D92A12",
"3  c #DA351A",
"4  c #DB3E1D",
"5  c #E02605",
"6  c #E73204",
"7  c #E33404",
"8  c #EB3804",
"9  c #E13D0B",
"0  c #CF3E28",
"q  c #E94205",
"w  c #E44F05",
"e  c #F14504",
"r  c #F34902",
"t  c #EB5A04",
"y  c #F95000",
"u  c #FB5803",
"i  c #FF5F00",
"p  c #E45318",
"a  c #F46405",
"s  c #FE6B03",
"d  c #F07302",
"f  c #FC7903",
"g  c #F97C00",
"h  c #FD7008",
"j  c #E56D11",
"k  c #FE7E10",
"l  c #CB4720",
"z  c #DB4C21",
"x  c #DE422E",
"c  c #DF5726",
"v  c #C84D33",
"b  c #C54138",
"n  c #DA6126",
"m  c #EB662A",
"M  c #EB722D",
"N  c #E56436",
"B  c #ED7C3A",
"V  c #D87441",
"C  c #F88202",
"Z  c #FA8800",
"A  c #F88B01",
"S  c #F89100",
"D  c #F89200",
"F  c #F99502",
"G  c #F99D0F",
"H  c #F48715",
"J  c #FC991A",
"K  c #FAA115",
"L  c #F08621",
"P  c #FD8C20",
"I  c #F7992D",
"U  c #F08738",
"Y  c #F4993E",
"T  c #FCA825",
"R  c #FCB02D",
"E  c #FBA533",
"W  c #FEB835",
"Q  c #FDB938",
"!  c #ED814A",
"~  c #EC9557",
"^  c #F3A142",
"/  c #F2A84A",
"(  c #F9B449",
")  c #FEBD4B",
"_  c #EAA65B",
"`  c #FBAF50",
"'  c #F7B952",
"]  c #FFB864",
"[  c #F7B773",
"{  c #FEC343",
"}  c #FFC54B",
"|  c #FFC84F",
" . c #FFCC51",
".. c #FFCE53",
"X. c #FDCA5F",
"o. c #FFD15B",
"O. c #FAC46A",
"+. c #FFD569",
"@. c #FCD071",
"#. c #FFD978",
"$. c #FFDF7E",
"%. c #F7C88E",
"&. c #FADA98",
"*. c #FFE086",
"=. c #FFE793",
"-. c #FFEC9F",
";. c #FFEFA4",
":. c #FFF3AC",
">. c #FFF5B5",
",. c #FFF9BF",
"<. c None",
/* pixels */
"<.<.<.<.<.<.<.<.<.<.<.<.<.<.<.<.<.<.<.<.<.<.<.<.<.<.<.<.<.<.<.<.<.<.<.<.<.<.<.<.<.<.<.<.<.<.<.<.<.<.",
"<.<.<.<.<.<.<.<.<.<.<.<.<.<.<.<.<.<.<.<.<.<.<.<.<.<.<.<.<.<.<.<.<.<.<.<.<.<.<.<.<.<.<.<.<.<.<.<.<.<.",
"<.<.<.<.<.<.<.<.<.<.<.<.<.<.<.<.<.<.<.<.<.<.<.<.<.<.<.<.<.<.<.<.<.<.<.<.<.<.<.<.<.<.<.<.<.<.<.<.<.<.",
"<.<.<.<.<.<.<.<.<.<.<.<.<.<.<.<.<.<.<.<.<.<.<.<.<.<.<.<.<.<.<.<.% <.<.<.<.<.<.<.<.<.<.<.<.<.<.<.<.<.",
"<.<.<.<.<.<.<.<.<.<.<.<.<.<.<.<.<.<.<.<.<.<.<.<.<.<.<.<.<.<.<.<.% % <.<.<.<.<.<.<.<.<.<.<.<.<.<.<.<.",
"<.<.<.<.<.<.<.<.<.<.<.<.<.<.<.<.<.<.<.<.<.<.<.<.<.% % % % <.<.<.% $ % <.<.<.<.<.<.<.<.<.<.<.<.<.<.<.",
"<.<.<.<.<.<.<.<.<.<.<.<.<.<.<.<.<.<.<.<.<.% % $ $ $ $ $ % % <.% % $ $ % <.<.<.<.<.<.<.<.<.<.<.<.<.<.",
"<.<.<.<.<.<.<.<.<.<.<.<.<.<.<.<.<.<.% $ $ $ $ $ $ $ $ $ $ $ $ $ $ $ $ $ <.<.<.<.<.<.<.<.<.<.<.<.<.<.",
"<.<.<.<.<.<.<.<.<.<.<.<.<.<.<.<.<.<.% $ $ $ $ $ $ $ $ $ $ $ $ $ $ $ $ $ % <.<.<.<.<.<.<.<.<.<.<.<.<.",
"<.<.<.<.<.<.<.<.<.<.<.<.<.<.<.<.<.% $ $ $ $ $ $ $ $ $ $ $ $ $ $ $ $ $ $ % <.<.<.<.<.<.<.<.<.<.<.<.<.",
"<.<.<.<.<.<.<.<.<.<.<.<.<.<.<.<.<.% $ $ $ $ $ $ $ $ $ $ $ $ $ $ $ $ $ $ % <.<.<.<.<.<.<.<.<.<.<.<.<.",
"<.<.<.<.<.<.<.<.<.<.<.<.<.<.<.<.% % $ $ $ # # # # # $ $ $ $ $ $ $ $ $ $ % <.<.<.<.<.<.<.<.<.<.<.<.<.",
"<.<.<.<.<.<.<.<.<.<.<.<.<.<.<.% $ $ $ $ $ 2 3 3 3 3 * # $ $ $ $ $ $ $ $ <.<.<.<.<.<.<.<.<.<.<.<.<.<.",
"<.<.<.<.<.<.<.<.<.<.<.<.<.% % $ $ # ; c U ) | | | | Y 4 # $ $ $ $ $ $ % <.<.<.<.<.<.<.<.<.<.<.<.<.<.",
"<.<.<.<.<.<.<.<.<.<.% % % $ $ & 3 M ^ | .. . . . . ...( m - $ $ $ $ $ % <.<.<.<.<.<.<.<.<.<.<.<.<.<.",
"<.<.<.<.<.<.<.<.<.% $ $ $ $ - ! #.=.=.+. . . . . . . .....U - $ $ $ $ % <.<.<.<.<.<.<.<.<.<.<.<.<.<.",
"<.<.<.<.<.<.<.<.% $ $ $ # 4 / *.-.-.,.>.+. . . .| Q W W W { M $ $ $ $ % <.<.<.<.<.<.<.<.<.<.<.<.<.<.",
"<.<.<.<.<.<.<.<.% $ $ $ 4 O.;.;.-.#.-.,.=. .| Q K F S D S G E 1 # $ $ $ % <.<.<.<.<.<.<.<.<.<.<.<.<.",
"<.<.<.<.<.<.<.<.% $ # 3 O.:.,.,.,.>.=.=.+.Q K D S D D D D D D w $ $ $ $ $ % <.<.<.<.<.<.<.<.<.<.<.<.",
"<.<.<.<.<.<.<.<.% $ * ~ ,.,.,.,.>.=.#.Q R k S D D Z A D D D D C ; $ $ $ $ % <.<.<.<.<.<.<.<.<.<.<.<.",
"<.<.<.<.<.<.<.<.% # c ;.,.,.,.;.+.o... .{ k C g f h Z S D D D D , # $ $ $ $ <.<.<.<.<.<.<.<.<.<.<.<.",
"<.<.<.<.<.<.% $ $ & B :.,.,.,.-.*.;.$...| a i i s f f J D D D D , # $ $ $ $ <.<.<.<.<.<.<.<.<.<.<.<.",
"<.<.<.<.% $ $ $ $ ; O.,.,.,.,.,.&._ ~ (  .I u i s s J G D D F d * $ $ $ $ % <.<.<.<.<.<.<.<.<.<.<.<.",
"<.<.<.<.% $ $ $ $ ; ' :.,.>.=.@.V o o + /  .p y i P K S D D F t $ $ $ $ $ <.<.% <.<.<.<.<.<.<.<.<.<.",
"<.<.<.% $ $ $ $ $ ; ( +.$.+. .V O o o o + ' ! 8 i h C A A A w - $ $ $ % <.<.<.<.<.<.<.<.<.<.<.<.<.<.",
"<.<.<.% $ $ $ $ $ ; ( |  . .) 1 . o o o O _ &.x e i i i i h ; # $ $ $ % <.% <.<.<.<.<.<.<.<.<.<.<.<.",
"<.<.<.% % % $ $ $ - v b ' ..} q @ O o o b *.,.%.x r u e m H ; $ $ $ $ % $ $ % <.<.<.<.<.<.<.<.<.<.<.",
"<.<.<.% <.<.$ $ $ # X X 4 ( } h 8 - @ : / =.$.o.O.[ ` ^ T w & $ $ $ $ $ $ $ % <.<.<.<.<.<.<.<.<.<.<.",
"<.<.<.% <.<.% $ $ $ $   & Y $.E s u m ` .. . . ...} { T w $ $ $ $ $ $ $ $ $ <.<.<.<.<.<.<.<.<.<.<.<.",
"<.<.<.<.<.<.<.$ $ $ $ # : ` >.#.) ] #.o.| ) R T T F A w $ $ $ $ $ $ $ $ $ $ <.<.<.<.<.<.<.<.<.<.<.<.",
"<.<.<.<.<.<.<.% $ $ $ # b @.O.X...o. .| P h Z C t 9 q 6 $ $ $ $ $ $ $ $ $ $ <.<.<.<.<.<.<.<.<.<.<.<.",
"<.<.<.<.<.<.<.<.% $ $ # 1 P q d W  . .} k s 9 ; & r C a = $ $ $ $ $ $ $ $ $ <.<.<.<.<.<.<.<.<.<.<.<.",
"<.<.<.<.<.<.<.<.% $ $ $ $ w > @ j { | Q P a * # & a F Z 5 # $ $ $ $ $ $ $ % <.<.<.<.<.<.<.<.<.<.<.<.",
"<.<.<.<.<.<.<.<.<.% % $ $ , w . l Q { H z L > # # , S Z r * $ $ $ $ $ $ $ <.<.<.<.<.<.<.<.<.<.<.<.<.",
"<.<.<.<.<.<.<.<.<.<.% $ $ - I T T T L n ^ n : $ $ & d Z i 6 $ $ $ $ $ % <.<.<.<.<.<.<.<.<.<.<.<.<.<.",
"<.<.<.<.<.<.<.<.<.<.<.% $ $ < n c c 0 Y v X @ $ # & d Z i u * $ $ $ $ % <.<.<.<.<.<.<.<.<.<.<.<.<.<.",
"<.<.<.<.<.<.<.<.<.<.<.<.% $ * p j l n < . - $ # 1 p a s i r * $ $ $ % <.<.<.<.<.<.<.<.<.<.<.<.<.<.<.",
"<.<.<.<.<.<.<.<.<.<.<.<.<.<.% 2 , ; 2 @   e = & N L 7 i u = $ $ $ % <.<.<.<.<.<.<.<.<.<.<.<.<.<.<.<.",
"<.<.<.<.<.<.<.<.<.<.<.<.<.<.% # # $ $   # 6 2 N N > r i 6 $ $ $ $ <.<.<.<.<.<.<.<.<.<.<.<.<.<.<.<.<.",
"<.<.<.<.<.<.<.<.<.<.<.<.<.<.% $ $ $ $ # & ; ~ ! 5 u i 6 $ $ $ % % <.<.<.<.<.<.<.<.<.<.<.<.<.<.<.<.<.",
"<.<.<.<.<.<.<.<.<.<.<.<.<.% % $ $ $ $ 3 B U 9 9 r i e $ $ $ $ % <.<.<.<.<.<.<.<.<.<.<.<.<.<.<.<.<.<.",
"<.<.<.<.<.<.<.<.<.<.<.<.<.$ $ $ $ $ $ z M t d g i y = $ $ $ $ % <.<.<.% <.<.<.<.<.<.<.<.<.<.<.<.<.<.",
"<.<.<.<.<.<.<.<.<.<.<.<.<.<.% $ $ $ $ > t g Z h y = # $ $ $ $ $ $ % $ % <.<.<.<.<.<.<.<.<.<.<.<.<.<.",
"<.<.<.<.<.<.<.<.<.<.<.<.<.<.<.$ $ $ $ & > 5 5 5 = # $ $ $ $ $ $ $ $ % <.<.<.<.<.<.<.<.<.<.<.<.<.<.<.",
"<.<.<.<.<.<.<.<.<.<.<.<.<.<.<.<.<.<.<.% $ $ # # $ $ $ $ $ $ $ % % <.<.<.<.<.<.<.<.<.<.<.<.<.<.<.<.<.",
"<.<.<.<.<.<.<.<.<.<.<.<.<.<.<.<.<.<.<.<.<.<.$ % % % % % % % % <.<.<.<.<.<.<.<.<.<.<.<.<.<.<.<.<.<.<.",
"<.<.<.<.<.<.<.<.<.<.<.<.<.<.<.<.<.<.<.<.<.<.<.<.<.<.<.<.<.<.<.<.<.<.<.<.<.<.<.<.<.<.<.<.<.<.<.<.<.<.",
"<.<.<.<.<.<.<.<.<.<.<.<.<.<.<.<.<.<.<.<.<.<.<.<.<.<.<.<.<.<.<.<.<.<.<.<.<.<.<.<.<.<.<.<.<.<.<.<.<.<.",
"<.<.<.<.<.<.<.<.<.<.<.<.<.<.<.<.<.<.<.<.<.<.<.<.<.<.<.<.<.<.<.<.<.<.<.<.<.<.<.<.<.<.<.<.<.<.<.<.<.<.",
"<.<.<.<.<.<.<.<.<.<.<.<.<.<.<.<.<.<.<.<.<.<.<.<.<.<.<.<.<.<.<.<.<.<.<.<.<.<.<.<.<.<.<.<.<.<.<.<.<.<."
};
