/* XPM */
static char *result[] = {
/* columns rows colors chars-per-pixel */
"50 50 222 2 ",
"   c #040201",
".  c #0C0602",
"X  c #0D0B03",
"o  c #0A0B06",
"O  c #130B02",
"+  c #1B0D01",
"@  c #130E0A",
"#  c #110700",
"$  c #141007",
"%  c #1B1104",
"&  c #15120B",
"*  c #1B140B",
"=  c #1D190E",
"-  c #1B1612",
";  c #1B1B13",
":  c #181915",
">  c #241404",
",  c #241A06",
"<  c #2B1C06",
"1  c #22160B",
"2  c #231A0C",
"3  c #2B1C0C",
"4  c #2A1605",
"5  c #311E0E",
"6  c #351C04",
"7  c #241C12",
"8  c #2A1E12",
"9  c #241F19",
"0  c #311F11",
"q  c #1D2118",
"w  c #2B220F",
"e  c #35220E",
"r  c #3B220B",
"t  c #3C2402",
"y  c #2C2214",
"u  c #2B231B",
"i  c #27241A",
"p  c #342413",
"a  c #3A2614",
"s  c #3D2915",
"d  c #32261B",
"f  c #342A1D",
"g  c #3B2B1B",
"h  c #312916",
"j  c #2C2B24",
"k  c #2A2823",
"l  c #322C24",
"z  c #352E27",
"x  c #363326",
"c  c #3A3225",
"v  c #35342B",
"b  c #3A352C",
"n  c #3B382C",
"m  c #3B3B33",
"M  c #3B3935",
"N  c #462B0D",
"B  c #4B2C0D",
"V  c #42250D",
"C  c #51330E",
"Z  c #442C14",
"A  c #4A2E14",
"S  c #432E1B",
"D  c #402711",
"F  c #4C3215",
"G  c #45311C",
"H  c #4C341C",
"J  c #493417",
"K  c #533315",
"L  c #53361B",
"P  c #55391C",
"I  c #5B3D1D",
"U  c #5A3717",
"Y  c #512F0A",
"T  c #663F16",
"R  c #412F21",
"E  c #443423",
"W  c #4A3623",
"Q  c #4D3925",
"!  c #433A2C",
"~  c #4D3C2A",
"^  c #443629",
"/  c #503722",
"(  c #533B23",
")  c #5A3D23",
"_  c #533D2B",
"`  c #423D33",
"'  c #3E4037",
"]  c #5C421F",
"[  c #64451D",
"{  c #6B461D",
"}  c #5D4223",
"|  c #55402A",
" . c #5C432B",
".. c #5A4528",
"X. c #4C4234",
"o. c #44443B",
"O. c #4C453B",
"+. c #47463B",
"@. c #534333",
"#. c #5B4633",
"$. c #574A39",
"%. c #49402F",
"&. c #634424",
"*. c #684724",
"=. c #664925",
"-. c #6A4A24",
";. c #634629",
":. c #654A2B",
">. c #6A4C2C",
",. c #714E2A",
"<. c #6C502D",
"1. c #72522D",
"2. c #654B32",
"3. c #674E35",
"4. c #6C5232",
"5. c #6C523A",
"6. c #745533",
"7. c #755835",
"8. c #795A35",
"9. c #745639",
"0. c #755A3B",
"q. c #7B5C3B",
"w. c #795737",
"e. c #4D4B43",
"r. c #484542",
"t. c #524D43",
"y. c #544D46",
"u. c #555146",
"i. c #54534A",
"p. c #5A554B",
"a. c #5A594E",
"s. c #595246",
"d. c #5C5C53",
"f. c #585A53",
"g. c #635444",
"h. c #625A4C",
"j. c #685647",
"k. c #725A42",
"l. c #7B5F46",
"z. c #635E53",
"x. c #685D55",
"c. c #715F51",
"v. c #536755",
"b. c #586957",
"n. c #4C614E",
"m. c #7C6246",
"M. c #636255",
"N. c #6A6355",
"B. c #65655B",
"V. c #6A655A",
"C. c #6C695C",
"Z. c #746354",
"A. c #706B5D",
"S. c #7A6A5A",
"D. c #75655A",
"F. c #6D6C63",
"G. c #6A6964",
"H. c #726E63",
"J. c #796F66",
"K. c #6F7165",
"L. c #6F706A",
"P. c #737165",
"I. c #7B7366",
"U. c #75746B",
"Y. c #7A756A",
"T. c #7B7A6D",
"R. c #76786C",
"E. c #7C7C73",
"W. c #797A72",
"Q. c #815E36",
"!. c #84643E",
"~. c #826444",
"^. c #85694B",
"/. c #82766A",
"(. c #817D74",
"). c #7F8070",
"_. c #838175",
"`. c #84847C",
"'. c #8B8479",
"]. c #91867B",
"[. c #8C8B83",
"{. c #888882",
"}. c #938D84",
"|. c #9A8E82",
" X c #9C9184",
".X c #94948C",
"XX c #9B958A",
"oX c #9C998D",
"OX c #919286",
"+X c #9C9B92",
"@X c #A2998D",
"#X c #A19B91",
"$X c #9FA195",
"%X c #A3A094",
"&X c #A7A69B",
"*X c #B1AA9B",
"=X c #ADACA3",
"-X c #AEADA8",
";X c #B2AEA5",
":X c #AFBBA7",
">X c #ADBBAA",
",X c #AFB1A8",
"<X c #B3B2A7",
"1X c #B4B4AB",
"2X c #B1BCAA",
"3X c #BBB9AD",
"4X c #B7B6A8",
"5X c #BCBCB4",
"6X c #C2BEB3",
"7X c #C1BBAF",
"8X c #B6C6B6",
"9X c #B2C0AF",
"0X c #C3C3BC",
"qX c #C5C2B8",
"wX c #CCCAC5",
"eX c #C6C7C1",
"rX c #DBDAD6",
"tX c #D4D3CE",
"yX c #DAE5DA",
"uX c #E3E3DE",
"iX c #ECEAE7",
"pX c None",
/* pixels */
"pXpXpXpXpXpXpXpXpXpXpXpXpXpXpXpXpXpXpXpXpXwX3X6X1X6XwXrXiXuXuXrXpXpXpXpXpXpXpXpXpXpXpXpXpXpXpXpXpXpX",
"pXpXpXpXpXpXpXpXpXpXpXpXpXpXpXpXpXpXpX[.OXOXXX+XOX(.-X+X-X-XtXiXuXpXpXpXpXpXpXpXpXpXpXpXpXpXpXpXpXpX",
"pXpXpXpXpXpXpXpXpXpXpXpXpXpXpXpXpXd.U.P.=XoX'.%X}.E.(.+X<X.Xa.W.uXuXpXpXpXpXpXpXpXpXpXpXpXpXpXpXpXpX",
"pXpXpXpXpXpXpXpXpXpXpXpXpXpXpXF.`.z.b.oX).R.).K.B.H.f.H.P.[.M.5XeX+XrXpXpXpXpXpXpXpXpXpXpXpXpXpXpXpX",
"pXpXpXpXpXpXpXpXpXpXpXpXpXP.i.-X1X=X' P.).).C.).T.C.R.M.K.x %X*XF.OX+XE.wXpXpXpXpXpXpXpXpXpXpXpXpXpX",
"pXpXpXpXpXpXpXpXpXpXpXpXi.1X<XOXK.).OXi.P.P.).R.P.I.M.V.+.b.3XK.W.P.U.{.).pXpXpXpXpXpXpXpXpXpXpXpXpX",
"pXpXpXpXpXpXpXpXpXpXpXC.e.<XU.F.K.P.<X%.+.A.C.d.C.h.b.N.w _._.C.U.U._.b.' OXpXpXpXpXpXpXpXpXpXpXpXpX",
"pXpXpXpXpXpXpXpXpXpXpXqXe.C.'.H.P.U.T.&Xx a.w i = w x u.x oX$XR.M.W.P.r.W.5X{.pXpXpXpXpXpXpXpXpXpXpX",
"pXpXpXpXpXpXpXpXpXpX+XT.C.b Y.Y.H.B.` y.* 7 . # % % $ % 7 O.(.I.A./.O.A.&XP.$X{.pXpXpXpXpXpXpXpXpXpX",
"pXpXpXpXpXpXpX+.pXoXB.Y.E.s.u.H.y.l 1 # @ # 8 + h w 8 2 1 % f ^ A.h.M.&XN.T.).].{.pXpXpXpXpXpXpXpXpX",
"pXpXpXpXpXpXpXpX+XC.Y.H.H.A.s.l 7 1 O 0 3 p g > ^ g g g R 3 4 8 , O.].XXC.H.H.T..XE.pXpXpXpXpXpXpXpX",
"pXpXpXpXpXpXn _.P.M.H.P.C.M.d # + 3 3 ~ S W _ e #.#.| W #._ Q p , 3 ^ N.J.A.T.a.U.OX{.pXpXpXpXpXpXpX",
"pXpXpXpXpXpXu.n u.C.C.I.a.2 @ % p W a ( ( ( 5.D 5.3. .2.5.( 5.( Q h 1 $.N.N.F.$.i.i.M pXpXpXpXpXpXpX",
"pXpXpXpXpX%X3XT.` $.u.a.x % O f Z 2.A 3.;.:.9.Z 9.9.>.w.0.&.^.3.Q E p 4 @.N.s.M.=X<X.X$XpXpXpXpXpXpX",
"pXpXpXpXU.+XC.&X5XV.O.u O * l E Z 9.P >.>.=.q.C q.w.1.1.7.*.~.>.#.| ^ a % ~ M.<XoXf.,XG.pXpXpXpXpXpX",
"pXpXpXpX{._.G.M.OXoXh * = d y E H ~.P 7.<.>.!.C 8.1.,.-.6.*.!.9.5...~ ~ , $ O._.G.W..X.XpXpXpXpXpXpX",
"pXpXpXpX:XR.).P.).d.- - 2 E g _ } ~.I 8.>.7.w.K Q.-.6.,.6.{ ~.6.5.;.#.%.h @ n H.{.G.G.5XG.pXpXpXpXpX",
"pXpXpXC.*X_.M.C._.v   u 8 ^ Z ;.;.m.U q.;.w.q.B q.U <.6.1.>.1.8.-.:.2.) G p O y.L.G.b..X+XpXpXpXpXpX",
"pXpXpXd.z.N.C.M.C.j # S a 3.K >.=.~.P ~.] <.9.I ^.U :.<.4.<.6.7.,.*.w.2.| h + s.U.y.i.G.{.`.pXpXpXpX",
"pXpXpXoXA.c x $.! = O S s 5.K ;.} q.K m.;.:.4.L l.U } } 0.:.7.-.{ &.,.;. .e + 8 ! z B.U.{.L.pXpXpXpX",
"pXpXpXK.%X#X'.O.^ . % @.W 5.&.} } 7.} 9.&.;.9.L ~.;.} I 7.;.:.;.;.;.>.) #.e $ 2 o.#X<X$X.X` pXpXpXpX",
"pXpXpXM.Y.}.XXY.= = d @.@.g.3._ 2.;.3.m.k.3.l.H k.) 2.l.m.k.3.3.#._ k.g.@.x 2 l ! =XH.F.).r.pXpXpXpX",
"pXpXpXB.H.W.f.i.: ' f.W.oX}.oX X X X X|.}.J.h.l J.h.G.(.]. X@X'.@X X#X}.{.L.' q m ,Xb.W.W.f.pXpXpXpX",
"pXpXpXP.U.E.W.d.:   : f.G.& & = i a.t.= @ @ . . r.- . @ @ l G.` 9 @ o v G.k     ' :Xi.U.U.e.pXpXpXpX",
"pXpXpXz.M.d.G.i.&   o M r.* $ $ O b O.= @ @ & X y.@ - @ # z e.7 @ @ - k M : o o ' 5Xv.K.F.r.pXpXpXpX",
"pXpXpXf.B.B.B.e.$ O * = 7 2 w > 3 , , , 8 8 7 O ` u 7 8 8 2 4 1 1 8 1 1 9 @ O . +.&XC.T.f.M pXpXpXpX",
"pXpXpXv m x m f 3 h s G a Q ( L K P J ] F J J < _ / H Z ] K Z ) / ) L S 0 p 0 + h B.f v z j pXpXpXpX",
"pXpXpX&X3XqX%Xg.a Z | 9.[ 8.*.-.[ 7.[ 1.] :.<.t 5.4.>.I ;.1.>.1.*.-.6.;._ S p + %.3X;X5X-XL.pXpXpXpX",
"pXpXpXW.C.).T.%.e J I 8.U Q.[ { [ 1.C q.;.>.4.V ^.4.>.&.1.[ -.-.{ T ,.*.} A r + | *XN.A.).f.pXpXpXpX",
"pXpXpXF.K.P.A.$.a J K 1.Y 8.{ -.-.7.] m.;.} 4.Z m. .;.&.0.=.-.1.{ { -.&.P L r + %.4XN.Y.).e.pXpXpXpX",
"pXpXpXB.H.b.C.h.e s J 0.K 7.&.<.*.w.U q.>.2.5.V m. .;.) 7.-.<.,.-.=.>. .( Q 3 % ! 7XV.U.K.r.wXpXpXpX",
"pXpXpXf.M.a.'.h.h g H m.J 0. .;.;.7.U q.2. .>.V ^.P I :.4.>.1.[ =.} <. .#.E e * ! qXp.M.C.+.0XpXpXpX",
"pXpXpXe.a.C.J.O.p a W k.G k. .2.;.w.P ~.;.} 9.6 ~.;.} &.9.4.;.4.:.2.2._ _ ~ 3 1 ` @Xx.d.a.r.0XpXpXpX",
"pXpXpX` z ` O.c 7 a 0 @.S _ / H  . .6 ;.) H  .F 5.A / / 2.H A  .( H ) R ^ d 8 . 7 x.x o.+.v 8XpXpXpX",
"pXpXpX=X0X7X#Xt.` h.c.Z.j.^.D.D.D.c.S.S.$.g.c.d ^ j.j.j.g.S.S.Z.D.c.c.D.D.x.t.k t.6X-X5X5XB.eXpXpXpX",
"pXpXpXd.L.H.U.` X.H./.I.J./././.Y.Y.J.h.x.s.` ^ x./.` c.x.V.Y./././././.J.V.h.z ` =Xf.a.R.r.5XpXpXpX",
"pXpXpXG.U.U.U.p.& & & I./.@ * u 9 G.G.O - - @ . y.k . @   l (.b 1 + @ b [.z . . ' 5XF.E.W.r.eXpXpXpX",
"pXpXpXU.U.b.G.f.X X   z b . @ . # u b & @ & -   l - - - @ u ` @ * # & 9 b @ &   v 4Xd.W.U.o.wXpXpXpX",
"pXpXpXB.G.d.U.i.& O @ + . 1 1 1 1 1 > 1 1 + + O * 1 1 1 + * + 1 + % * * # O @   o.1Xd.M.d.b 8XpXpXpX",
"pXpX5Xi.y.p.f.` 2 = 8 l 3 g g 0 0 g 4 0 g g g 3 > g p p S 4 0 s a g f a k 1 1 @ x XXa.a.r.b pXpXpXpX",
"pXpXOXy.x.z.x.z u g g ~ s #.J H / ) 6 ) S / ( V a _ / / L H L H / H G Q R g a 1 u H.t.V.B.M 5XpXpXpX",
"pXpX5X}.oX#X#Xg.y a a _ s } N F A P A ;.Z F P V V ;.A H / I ) K K A A / E g 8 + @.6X_.XXXXi.pXpXpXpX",
"pXpX3Xf.o.p.x.$.a p r ) B &.B K K P N } A L / 6 6 ) Z F P F P A K A A L F a 5 + ^ *X~ t.d.j pXpXpXpX",
"pXpX1Xe.y.y.y.s.p e e P N I B K L ) V ( H / _ 5 4 ;./ / ( A ) F U Y K / H D 5 > c @Xu.M.d.k pXpXpXpX",
"pXpX-XM r.r.` _ y p r Q Z &.F K J ..e Q J s | e 4 @.G H H s | H K A F L Z s 3 + X.oXi.f.e.k pXpXpXpX",
"pXpX=XM M M O.` 1 3 a H Z ;.F A L | 6 W E g Q w 4 ~ G R H r P L L A P Q S g 3 + n '.j v ' q pXpXpXpX",
"uXpX{.k M v ` x 8 p a E G #.H J H L < Z H g H , > ^ W W H e J Q J J Q Q g c y * ! F.v ' M : pXpXpXpX",
"yXpXd.o q i q k & & = y , g < , < < % , = w % $ O w 2 , w % , , , , f y ; w % X q q o q q : pXpXpXpX",
"yXpXeX9X9X8X9X8X>X>X>X>X>X2X>X2X>X>X:X:X:X:X:X:X:X:X:X:X:X:X:X:X>X>X:X:X>X>X>X>X9X9X:X>X>XpXpXpXpXpX",
"v.b.v.n.v.b.v.v.v.v.v.b.b.b.v.b.v.v.v.v.v.v.v.v.v.v.v.v.v.v.v.v.v.v.v.v.v.v.v.v.v.v.v.v.v.v.v.b.pXpX"
};
