/* XPM */
static char *result[] = {
/* columns rows colors chars-per-pixel */
"50 50 48 1 ",
"  c #917B5F",
". c #856F55",
"X c #928069",
"o c #B09473",
"O c #A38A6C",
"+ c #7F6A50",
"@ c #988368",
"# c #977F62",
"$ c #9D876B",
"% c #9D8364",
"& c #746149",
"* c #726450",
"= c #AB9477",
"- c #796954",
"; c #A69075",
": c #A38D70",
"> c #6E5D48",
", c #8A7358",
"< c #8C7962",
"1 c #978771",
"2 c #8F7759",
"3 c #675743",
"4 c #957B5C",
"5 c #AB9172",
"6 c #85755F",
"7 c #B49977",
"8 c #9E8A70",
"9 c #A38867",
"0 c #AE9C84",
"q c #A7967E",
"w c #A88E6E",
"e c #8A765C",
"r c #79654D",
"t c #7F6D57",
"y c #A2917A",
"u c #AF9778",
"i c #5F513E",
"p c #AF997C",
"a c #B89D7A",
"s c #9C8D77",
"d c #BDA17F",
"f c #8C7D68",
"g c #80715D",
"h c #B8A58B",
"j c #C5A782",
"k c #B49E80",
"l c #544735",
"z c #C4AD8F",
/* pixels */
"=X7a5$w7o3X:8;p00;@6l3&&>3. +gys@OOr O99%&+22r-f;h",
":6O555o7a61$@sqqyqyX>l33>g6&*00qy;8t$wOwo,>.+fkzkk",
":g@wo7a75><@11yyyssX*61qhhhf1hqsy00X8=w:aut31zhdhp",
"u<e:ud75@3e8811s111-*0hhhh0XX00yyqp@$a=8=ku60p==kp",
"$*i.  2,+lr$11111f-fXs000yyfgyqyqqpf =;:85u<@81=d7",
"*618Xeege----gfX<*X=@1q0qs11g1XX8;@-eu=w$@@ t8$:u=",
"if8uu5o8;=p=X33**-$$@yq0qssX**-*>*>i>w75$@@%>@:$$ ",
"tg8=7aap=:;ua5>33X@@@s0qsss66#@@#@$ t-e ...-lt$#+-",
"O*<8==pdjaadjo @,<$# 1qq1ff>@oO$$:oO# -3X11X*3.+>8",
"=6>@=::pajjjd# ##+e$e-66g6<.tO@ #%O94 eg==;@<*i*;p",
"=:<<:$8;57djw 4444+. $=5u7u5t&ee,e ,+r&t;5$@X6*pdk",
"uup-.<e ##%9  ,24#%3.uao5www#>&r+.-gg*lgu=@@# <pdk",
"ppu6i22, %w2 2..2#92ewo5owwo% #t&3fqyq6t;;88$X<8pu",
"kd:*lr,4%ww,+...,24,&#%4%9o%.$9$@*X0001>X8=;;8@1p;",
"hp<@O$ .++&il3>rrrr&i&+&&r+3e:OOw%fhh01l*X18;s8f;p",
"k$o5O5u77 >6<#@O$#% ,@O5$O$.euo5oof00k=8<t-tfy1<;p",
".#w#44%5doeo7o9O9#%#Ooodjj5<<5wO%$6sq=kk==uX-f-*<<",
"-+%2,+.#%#3 %%##2r>>#Ow5775  :$%4,>*6#$OO:5#ii*<$:",
"=>&.r>>+2>l&..+rr.+i.$999OO &,##2&-$w,r.2 %.3r@u=;",
"=@68$$#t>.#err+. #%rtO::5;:#ii33>1djjjO+++&euaX;;:",
"p8@==;=O 5%    ,.24.t8$8;;$6t$@&:zjjjjja@&*::;:@;;",
"k8<$==; eO#2 442,,.+-X<<<<@;o7o djzzjjdjde-@;pd$8;",
"=<, 8p;<e$# 4422,.+&i***-*:dow9.7adjj79# &ig8kd;<:",
",i+, :8tXO 4# ,,+&>ii;pyy1.49%2i2449%+,#:5r& :=:te",
">li>-,.t;:$# 2,r>-6>t==pdk:+++r-  t33,5oOw#3-+&r3&",
"@*f6--**::%er>*-1;=ef;8;ppp;X:==5;;*>#9oo55 i>-1;$",
"$-XsysqX-t-><g1q88uOt;;yppkhkpowO8;8*.#9ooo9t:pkkk",
":tfX11sq1i<uuXf::$udg61y0khh0==ow:;=<i.%wooeX;pkkd",
":tfX111sytOu5$<;:$;j;><q0hh00=;wO$$1<il+4#%+$;uhhk",
"$-6X11sysg$5O$<:$@$5O3*1q0qyq=;:$##<-<2r++&i@kupkp",
" *t<XX11f-@$##eO%%#9%&>t<ffXs;;:$$ -$u77oo$,eaa=:O",
"r3**--g-36O#  +#%%#4+>6<t-*t<@@ .t-too7o7777.57w%,",
"-ffgg--66X5% 4&e#2+.@6y:88<3>*-&36X57o=7dauo>r,+ri",
"X1sy0qsy1t%%,.3333eu7X1@$$$XX<66*:o7o557djaOi>XOO ",
"fsyqhh0qs*&+&>,@9=aad@XX@$X@$88$*eO99999aa5-6u7wO2",
"fs00zzh0qgl3*<kddaddd#X@XX<X X$:6i&.,+>r22reOOw5w2",
"6sqq000001tu77d7ooaa7 X88@<<<<@$gi68y8<t*l3:w$%95O",
"6ssyqqqqy1Xow5ao5ooo5+68p;f66<ee>60=:;=qqg>OwO%99%",
"gsyy0qqysX<O9%999oo7O*fyq=Xtt,,-310p==q0hhg&#999%%",
"3f11sXXf6g>2422442%9,-skk=<-+tt&3X0pkk0hzz0>34###4",
">*tg6gt**3i>r,+&&&&>-t<$8<-33>-*>*Xyq00hh0qfg.++3i",
"Oe**-t6@O-XOO5O%$$#r**3>*>36:==uu$66;ysyy8XgO5w53&",
"%  ##%9O%t$$##%%%% &g##%% t77u5w7aa&3*t-t6-ew=o7+t",
"#4 #  %9#t@%##4%%%2& 44424+4w775o7d@3wa= >*:ooow3.",
" 42 42#% t@$#  %%4+.%444,2>&%ado5aa5.7adjw,4442&+#",
"42,e ,,2.t#@#e242+-99#422,r;@2999w9% o77a53+.+l&%9",
"% ,e,,,.+t@## ,.>i+994444.@jj,3rr+.&@7a77e6=7o&,99",
"%4....,2.-e ,+&&*r&4%444,r:77O-e.t+&&.,423:777+.ww",
",+>>&&&&3-..--68;@&>2222&r$$$%e #:5O-+rr33Ow=u2i+%",
"3i@=$$O:ii>>-$=u=O ir,.+&+## 2-<@:: t%%%232#O%,333"
};
