/* XPM */
static char *result[] = {
/* columns rows colors chars-per-pixel */
"50 50 207 2 ",
"   c #020101",
".  c #0B0401",
"X  c #060904",
"o  c #0C0904",
"O  c #0A0608",
"+  c #0D0C0A",
"@  c #070508",
"#  c #140600",
"$  c #130B02",
"%  c #1B0C01",
"&  c #120D0A",
"*  c #0E1106",
"=  c #0C110B",
"-  c #151006",
";  c #1C1205",
":  c #13110C",
">  c #1B130C",
",  c #19190D",
"<  c #151612",
"1  c #1B1711",
"2  c #151B15",
"3  c #1B1B16",
"4  c #1D1D1A",
"5  c #161C18",
"6  c #241403",
"7  c #2A1705",
"8  c #23150B",
"9  c #2A170B",
"0  c #241A0D",
"q  c #2B1A0C",
"w  c #2B1904",
"e  c #321B03",
"r  c #321E0C",
"t  c #241A12",
"y  c #2B1E10",
"u  c #221D19",
"i  c #201614",
"p  c #311E10",
"a  c #1E211B",
"s  c #192112",
"d  c #34210D",
"f  c #252015",
"g  c #2C2113",
"h  c #22231D",
"j  c #2A231B",
"k  c #23281C",
"l  c #2D2A1D",
"z  c #342313",
"x  c #392614",
"c  c #3D2A15",
"v  c #322A1C",
"b  c #3C2B1B",
"n  c #33271D",
"m  c #3C301E",
"M  c #211F20",
"N  c #2B2B23",
"B  c #2D2C29",
"V  c #262922",
"C  c #312C23",
"Z  c #362A22",
"A  c #2C312C",
"S  c #2E3125",
"D  c #343224",
"F  c #3C3324",
"G  c #35352D",
"H  c #3A342A",
"J  c #36392C",
"K  c #3B3B2E",
"L  c #353631",
"P  c #363C32",
"I  c #3C3C33",
"U  c #3C3C3A",
"Y  c #42280F",
"T  c #422C14",
"R  c #422D19",
"E  c #45321D",
"W  c #483018",
"Q  c #453323",
"!  c #4B3624",
"~  c #4E3925",
"^  c #45362A",
"/  c #433A2C",
"(  c #4B3C2B",
")  c #443927",
"_  c #503924",
"`  c #533D2B",
"'  c #423D34",
"]  c #3E4236",
"[  c #3F433C",
"{  c #4C412E",
"}  c #47402E",
"|  c #54422E",
" . c #454136",
".. c #484436",
"X. c #45443C",
"o. c #4A443A",
"O. c #4B493D",
"+. c #474838",
"@. c #544534",
"#. c #594533",
"$. c #50453A",
"%. c #534C3E",
"&. c #5E4C38",
"*. c #614F3B",
"=. c #66513E",
"-. c #474841",
";. c #4C4B43",
":. c #4C4F49",
">. c #484540",
",. c #534E43",
"<. c #4E5143",
"1. c #4F5149",
"2. c #535144",
"3. c #5B5947",
"4. c #53544B",
"5. c #5B554A",
"6. c #55584B",
"7. c #5D5A4C",
"8. c #5A5345",
"9. c #565751",
"0. c #5D5D53",
"q. c #5C5A56",
"w. c #615C4D",
"e. c #6B5E4E",
"r. c #625D51",
"t. c #4F6451",
"y. c #516653",
"u. c #546955",
"i. c #566B58",
"p. c #5C6D59",
"a. c #5E6857",
"s. c #646356",
"d. c #6A6556",
"f. c #65645B",
"g. c #6A665B",
"h. c #6B6A5D",
"j. c #67695B",
"k. c #716C5E",
"l. c #776958",
"z. c #6C6C62",
"x. c #6E6D68",
"c. c #666560",
"v. c #716E63",
"b. c #6F7064",
"n. c #747265",
"m. c #7A7567",
"M. c #75746A",
"N. c #79766A",
"B. c #7B7A6D",
"V. c #737B6B",
"C. c #7C7C73",
"Z. c #827C6E",
"A. c #817E75",
"S. c #75816E",
"D. c #7D8273",
"F. c #848275",
"G. c #84847B",
"H. c #89867C",
"J. c #8C8A7E",
"K. c #918E7F",
"L. c #8C8C83",
"P. c #918D88",
"I. c #929285",
"U. c #9A9387",
"Y. c #95968B",
"T. c #9A978B",
"R. c #95998C",
"E. c #9B9A8E",
"W. c #949887",
"Q. c #979890",
"!. c #9C9C93",
"~. c #979792",
"^. c #A29F95",
"/. c #A59A88",
"(. c #93A18F",
"). c #A9A392",
"_. c #A4A59B",
"`. c #A9A69C",
"'. c #AAAA9D",
"]. c #A4A495",
"[. c #B3AD9D",
"{. c #ADADA3",
"}. c #B1AFA2",
"|. c #ADBDAD",
" X c #AEB2A4",
".X c #B2B2A5",
"XX c #BBB4A3",
"oX c #BFB9A7",
"OX c #B4B6AC",
"+X c #BBB9AA",
"@X c #ADBDB0",
"#X c #BBBAB2",
"$X c #BABAB5",
"%X c #C2BBA9",
"&X c #C1BDB5",
"*X c #B0C1AF",
"=X c #B4C5B4",
"-X c #B8C7B5",
";X c #BAC9B6",
":X c #C3C0AF",
">X c #C2C1B5",
",X c #C4C4BC",
"<X c #CAC6BF",
"1X c #C9C7C3",
"2X c #CCCCC6",
"3X c #C5C7C3",
"4X c None",
/* pixels */
"4X4X4X4X4X4X4X4X4X4X4X4X4X4X4X4X4X4X4X4X4X4X4X4X4X4X4X4X4X4X4X4X4X4X4X4X4X4X4X4X4X4X4X4X4X4X4X4X4X4X",
"4X4X4X4X4X4X4X4X4X4X4X4X4X4X4X4X4X4X4X4X4XS.p.S.p.j.(.4X4X4X4X4X4X4X4X4X4X4X4X4X4X4X4X4X4X4X4X4X4X4X",
"4X4X4X4X4X4X4X4X4X4X4X4X4X4X4X4X4X4XR.<.W. X X+X'.K.W.W. XD.V.R.4X4X4X4X4X4X4X4X4X4X4X4X4X4X4X4X4X4X",
"4X4X4X4X4X4X4X4X4X4X4X4X4X4X4X4XD.K h._.I.h.m.l.3.h.3.S.J.'.<.'.4X~.4X4X4X4X4X4X4X4X4X4X4X4X4X4X4X4X",
"4X4X4X4X4X4X4X4X4X4X4X4X4X4X4XP.4X'.H F.m.F.n.Z.Z.k.n.r.s...J.>Xx.{..XC.4X4X4X4X4X4X4X4X4X4X4X4X4X4X",
"4X4X4X4X4X4X4X4X4X4X4X4Xq.4X{.`.B.J.A.7.m.Z.n.Z.m.k.l.d.2.3.>Xn.M.r.G.P.G.4X4X4X4X4X4X4X4X4X4X4X4X4X",
"4X4X4X4X4X4X4X4X4X4Xz.c.:.1XA.x.h.v.$XN 3.h.N.v.N.f.g.h.3 C.I.v.N.A.n.z.X.P.4X4X4X4X4X4X4X4X4X4X4X4X",
"4X4X4X4X4X4X4X4X4X9.4X&X,.N.C.M.v.M.G.~.K z.G k N I G a.N ~.!.M.c.B.B.,.g.&XH.4X4X4X4X4X4X4X4X4X4X4X",
"4X4X4X4X4X4X4X4X4.E.`.F.g.' H.v.x.x.1.z.a B   @   X < 3 V f.L.M.h.m.,.7.}.F.`.J.4X4X4X4X4X4X4X4X4X4X",
"4X4X4X4X4X4X4X2.L.^.v.A.v.O.w.N.q.U 5 +     X   X     X   = L :.n.n.2.E.v.z.H.I.G.4X4X4X4X4X4X4X4X4X",
"4X4X4X4X4X4XO.I.'.s.B.k.M.g.8.' N : O . X   +         . .     & C ,.K.).k.n.B.k.L.L.4X4X4X4X4X4X4X4X",
"4X4X4X4X4X{.I E.n.n.n.h.v.r.K $ O     &           O     O O     $ , 2.k.k.h.m.s.F.W.Y.4X4X4X4X4X4X4X",
"4X4X4X4X4XL.I G 7.n.g.C.r.H . > u & .   @   @             .   $ $ > , 5.h.s.h.2.6.O.I 4X4X4X4X4X4X4X",
"4X4X4X4X~.].}.v.N 2.r.r.' # % u i O                   O       . & - $ f 7.k.7.,.T..XC.#X4X4X4X4X4X4X",
"4X4X4X4XP.^.C.{.+Xr.' F   > i N : X   @       X             . X > t t o 0  .8.XX`.v.].c.4X4X4X4X4X4X",
"4X4X4X4XC.H.f.s.E.T.v $ $ t y 1 +                               & i j t t 0 ,.H.v.g._.L.4X4X4X4X4X4X",
"4X4X4X4X{.V.V.z.B.d.f & u Z i & > .                           X . & N >.H i ' v.L.v.z.#Xx.4X4X4X4X4X",
"4X4X4XC.+XB.s.n.B.] o i j > # $ > $ .                       @ X O # & ` ,.n 8 ,.v.g.c.E.!.4X4X4X4X4X",
"4X4X4X4.b.b.z.0.b.N - j t % % t t $ .                         + & & & $ u >.Z ,.B.6.0.b.L.P.4X4X4X4X",
"4X4X4XY.a.S I 2.+., - > # ; p b t $ .                       @ + $ Z % % 8 Q $.F ..I 2.j.L.M.4X4X4X4X",
"4X4X4XF.{.I.n.K D o . % % r x x 8 $ .                         + 8 n 8 9 # % $.( m H..X'.!.:.4X4X4X4X",
"4X4X4Xc.z.E.{.M.f $ # ; z c x r i $ .                         + % 9 R p 7 % 7 F } :XB.h.C.4.4X4X4X4X",
"4X4X4Xf.z.N.0.5.# . % z Q W W d 0 $ .                         o ; p x ~ ! 6 % 9 F [.*.B.V.4.4X4X4X4X",
"4X4X4Xz.B.F.B.w.> # 9 ( ` T Y e q $                         @ . % r x ` #.` % % F *X7.V.N.4.4X4X4X4X",
"4X4X4Xf.g.s.n.w.> 6 ^ Q ` W e e t % .                         + % 7 R _ _ ` R 8 m :X3.n.z.-.4X4X4X4X",
"4X4X4X4.h.f.h.,.0 q ( ( _ _ e e ; . .                         . % e p ` W e.#.p ) oXs.m.a.L 4X4X4X4X",
"4X4X^.G ../ ' Z > Z ^ ^ ! W r e % .                           . # 9 9 ` _ ` *.` m d.F ] G B 4X4X4X4X",
"4X4X4XR.}.}.U.,.0 z ^ Q x r T % % $ .                         X % % n x c *.*.` { ).`.}.!.f.4X4X4X4X",
"4X4X4XH.N.F.Z.%.q q F b b p % % 8 $ .                 X     X + # # 8 Q r #.#.{ { %Xk.m.P.4.3X4X4X4X",
"4X4X4Xv.h.M.k.%.; F g $.Q % % 6 0 & .                   .     $ $ # % 9 @.( ) { ) XX3.h.B.;.2X4X4X4X",
"4X4X4Xj.h.s.d.w.0 > o.` # 8 8 y 1 $                           + > ; % # z l.m ( } XXk.B.h.4.2X4X4X4X",
"4X4X4X6.s.h.m.w.> H / 9 # 6 z q 8 # . .                       + $ t 9 ; # ( e.} m :Xw.s.f.U 2X4X4X4X",
"4X4X4XO.0.h.x.9.V N ; $ 6 w r r t $ .                         o 6 6 q 9 % % / 5...T.0.f.0.U <X4X4X4X",
"4X4XL.J S I 1.A & $ % 6 x T r r t $   .                       . ; w d x 6 $ 0 l f s.B P >.G ,X4X4X4X",
"4X4X,X].-XOX{.:.u . # 7 x T r p t $ .                         . ; 9 q b d 6 $ $ ..>X{.OXOXz.2X4X4X4X",
"4X4X4Xh.z.z.x.o.1 . % x b T r p i $ .                         . ; q d b x d ; ; ' }.r.c.C.X.#X4X4X4X",
"4X4X4Xj.b.B.v.5.; % q E W x x 7 1 $ .       @                 . % q z b Q E w % ) +Xg.H.D.-.2X4X4X4X",
"4X4X4Xb.B.s.h.5.> q d E R d x 8 & .                 @           o 9 x n E ! z w F XX7.C.z.U ,X4X4X4X",
"4X4X4Xs.m.w.m.w.% 6 d W R x z 8 .   @           @               . 6 q x x ~ R c ` oXw.z.0.I 3X4X4X4X",
"4X4X,X2.+.3.d.) 9 7 x x x x 8 #                                 . $ 8 b d ~ E ~ #./.%.s.O.U 3X4X4X4X",
"4X4XL.<.*.w.8.^ y p z z b z $ . .             X X @ @ X @ @ X X o . % 0 c E E | m l.%.7.6.U $X4X4X4X",
"4X4X,XW.(.'.U.5.0 9 b E g % . . o @   @ @ @   @ = + = = + + + + + $ ; 6 z E E E | XXU.E.Y.9.3X4X4X4X",
"4X4X#X6.+.3.d.o.0 8 b Q 6 . . & + O O + o + = < 2 < < < < < < < , - , ; 0 m m m ) ).2.;.0.B 4X4X4X4X",
"4X4XOX+.%.2.6.,.t y v g $ $ & & : < < < 2 3 4 a V a a h h h h h k 4 f f g z v ) F U.4.0.0.N 4X4X4X4X",
"4X4X XJ <.O.O.U t t 0 $ $ - & < < 1 3 4 u j N N V N N N N N N N N V B C v v v F ..!.X.9.:.h 4X4X4X4X",
"4X4X'.I K J -.P 4 , - o $ , < M 4 h N B B A L L L L G G J J L G L L I H H K D j  .I.k L U 4 4X4X4X4X",
"4X4XG.S S J U L 4 & - , 1 5 M V B G L P ' X.X.X.X.X.o.X.X.X.X.X.[ >.X.]  .+.' G P z.A U U 5 4X4X4X4X",
"4X4X6., s a s A =   X = o < 5 5 k V B G L I ]  .] ] ]  . .] ] ] [ P P P ] ] K U k 2 < 2 a < 4X4X4X4X",
"4X4X4X4X4X=X|.|.@X|.@X|.|.*X|.|.=X=X=X=X-X-X-X;X-X-X-X-X-X-X-X-X=X;X=X;X;X=X;X;X|.*X|.@X@X=X4X4X4X4X",
"y.i.y.t.u.i.u.u.y.t.y.y.y.y.y.y.y.y.u.y.u.u.u.u.u.u.u.u.u.u.u.u.u.u.u.u.u.u.u.u.u.u.t.u.u.t.i.u.4X4X"
};
