/* XPM */
static char *result[] = {
/* columns rows colors chars-per-pixel */
"50 50 3 1 ",
"  c #1E1D1D",
". c #141313",
"X c #242222",
/* pixels */
".  .     ..X   ..XX ..  X.. XX  ..XX . X  ..X    .",
".XX. XXXX. XXXX..XXX. XXX .XXXXX .XXX. XXX .XXXXX.",
" XX. XXXX.   XX .XXX. X XX.XXXXX . XX. XXX .X  XX ",
"  X.  X X. XXXX .XXX.   X .X  XX .XXX.XXXX  X X X ",
". ..     .. . ... . ..   ..     .. ...   ... . . .",
"..................................    ...  ...  ..",
" XXXXXX..XX. XXX .XXXXX .XXXXXXX. XXXXX. XXX .XXX.",
" X XX X . X.   XX. X  X .     XX. XX  X. X X .XXX.",
"X XXXXX . X.  XXX.XXX X .X XXX X.  XXXX.   X .X X.",
"    .  ..  .     .XX    .       .      .    .. ...",
"......................  . ........................",
".X X X  .XXXXXX.XXXX. XXXX .XXXX .XXXXX. XXX.XXXX.",
".X XXX X. XXXXX. XXX   XXX . X XX. XX X.  XX. XXX.",
".XXX  XX.XXX  X.  XX .X XX .   XX. XX X.  XX.XXXX ",
".X      .XX    .X   .      .XX   .     .    .    .",
". ..   ....   ..    .........   ..  .. ...........",
" XX.XXXXX  XXXX.XXXXXXXXXXXX. XXX.XX. XXX.XXXXXXX.",
" XX.XXXXX . XXX.    XXXXXXXX. XXX. X.   X. XXXX X.",
" XX   XXX  X XX. X XX X  XXX.   X. X  X X.X    XX ",
"    X          .X          X. X  .  .    .       .",
"..................................  ..............",
"XXXX XX..XX. XXX .XXXXX .XXXXXXX. XXXXX. XXX .XXX.",
"  X   X . X. XXX .X XXX .  XX XX.  XXXX.  XX .XXX.",
"X   X X . X.  XXX.X  XXX. X   XX. XXXXX. X X . XX.",
"X X    .. X.   X  XXX X  XXXX  X.XX X  .    ..X  .",
"............. ....  .  ....   .... ...............",
" XX.XXXXX. XXXX..XXX. XXX .XXXXX .XXX. XXX..XXXXX.",
" X .  X X. XXXX .XXX.  XXX XXXXX .XXX. XXX   XX X.",
"  X. X XX. X  X    X. X XX XXX X .XXX.X  X .  X X.",
"   .XX  X. X  X   XX.XXXX  XXX X     .XXX . X   X.",
"............. ... .... .... ......................",
".XXXXX..XX .XXX..XX.XXX..XXXXXX .XXXXXXXX XX .XXX.",
" X X X..XXX.  X..XX.  X    XX XX. X XXXXX XXX. XX.",
"  X XX .XXX.XXX. XX. XX .XXXX XX.  X XX X  XX.X X ",
" XXX X  X  .X X.   .  X        X X          X.  X.",
".  ......     ..   ..     .    ...    ..   ..   ..",
"XXXXXXX..XXXXX .XXXX. XXXX. XXXX .XXXX .XXX..XXXX.",
" XXXX X .    X .X XX. X XX.  XXX .X  X .  X .XXXX.",
"X XXXXX .X X X .  XX.  XXX.   XX . X XX.XXX .X XX.",
"X       .XX  X .X   .     . X   .      .   ..   ..",
". X .   ..   ..  .  .......XXX  ..XX .    ..     .",
" XXX.XXXX. XX .XX.XXXXXXX. XXXXX. XX .XXXX. XXXXX.",
"  XX. X X. XX . X.  XXX X. XX  X   XX.  XX.  XXXX.",
"  XX X XX   X .XX.  XXXXX.  X XX   XX.   X. XX  X.",
"    .    .   ..  .       .      .    .    .      .",
" XXXXX X  X .. XX    ...XXXX ..XX..XX X. XX   . X.",
"  XXXXXXXXXX .XXXXXXXX. XXXXX. XX .XXXX. XXXXX.XX.",
" X X   XXX X . XX   XX . X  X. XXX.X XX. XX  X. X.",
" X X X X XXX  X  X X X    X X. XXX.XXXX. X  XX  X.",
".  . . .......      . ..     ..  ..    .    ...  ."
};
