/* XPM */
static char *result[] = {
/* columns rows colors chars-per-pixel */
"50 50 35 1 ",
"  c #171120",
". c #181220",
"X c #191321",
"o c #1A1423",
"O c #1B1423",
"+ c #1B1625",
"@ c #1C1625",
"# c #1D1625",
"$ c #1D1726",
"% c #1D1727",
"& c #1C1729",
"* c #1E1828",
"= c #1F1828",
"- c #1F1829",
"; c #2A1922",
": c #201A2A",
"> c #211B2C",
", c #221B2D",
"< c #231C2D",
"1 c #231C2E",
"2 c #241D2F",
"3 c #251E30",
"4 c #3D2027",
"5 c #502D29",
"6 c #632F24",
"7 c #693E2C",
"8 c #723926",
"9 c #0E3E54",
"0 c #0D5771",
"q c #874E31",
"w c #885638",
"e c #9E6C42",
"r c #BF8149",
"t c #D59754",
"y c None",
/* pixels */
"yyyyyyyyyyyyyyyyyyyyyyyyyyyyyyyyyyyyyyyyyyyyyyyyyy",
"yyyyyyyyyyyyyyyyyyyyyyyyyyyyyyyyyyyyyyyyyyyyyyyyyy",
"yyyyyyyyyyyyyyyyyyyyyyyyyyyyyyyyyyyyyyyyyyyyyyyyyy",
"yyyyyyyyyyyyyyyyyyyyyyyyyyyyyyyyyyyyyyyyyyyyyyyyyy",
"yyyyyyyyyyyyyyyyyyyyyyyyyyyyyyyyyyyyyyyyyyyyyyyyyy",
"yyyyyyyyyyyyyyyyyyyyyyyyyyyyyyyyyyyyyyyyyyyyyyyyyy",
"yyyyyyyyyyyyyyyyyyyyyyyyyyyyyyyyyyyyyyyyyyyyyyyyyy",
"yyyyyyyyyyyyyyyyyyyy222yyyyyyyyyyyyyyyyyyyyyyyyyyy",
"yyyyyyyyyyyyyyyyyy*21132yyyyyyyyyyyyyyyyyyyyyyyyyy",
"yyyyyyyyyyyyyyyyy*X  +132yyyyyyyyyyyyyyyyyyyyyyyyy",
"yyyyyyyyyyyyyyyy3O    :33*yyyyyyyyyyyyyyyyyyyyyyyy",
"yyyyyyyyyyyyyyyy3O    O1-=yyyyyyyyyyyyyyyyyyyyyyyy",
"yyyyyyyyyyyyyyyy2O     >>X$yyyyyyyyyyyyyyyyyyyyyyy",
"yyyyyyyyyyyyyyyy-XX X+ O1X.yyyyyyyyyyyyyyyyyyyyyyy",
"yyyyyyyyyyyyyyyy%X9X90  1,XXyyyyyyyyyyyyyyyyyyyyyy",
"yyyyyyyyyyyyyyy3% X X+  13>.yyyyyyyyyyyyyyyyyyyyyy",
"yyyyyyyyyyyyyyy3%       13>%yyyyyyyyyyyyyyyyyyyyyy",
"yyyyyyyyyyyyyyy3#      +13>%yyyyyyyyyyyyyyyyyyyyyy",
"yyyyyyyyyyyyyyy3>O    +131%><yyyyyyyyyyyyyyyyyyyyy",
"yyyyyyyyyyyyyyy:>>X  +131%>33yyyyyyyyyyyyyyyyyyyyy",
"yyyyyyyyyyyyyyy-XO>XO1-OOO3332yyyyyyyyyyyyyyyyyyyy",
"yyyyyyyyyyyyyy21%X>X%3% O13333yyyyyyyyyyyyyyyyyyyy",
"yyyyyyyyyyyyy2--1O>O33% 1333332yyyyyyyyyyyyyyyyyyy",
"yyyyyyyyyyyyy*#-#-,O33:X-::::12yyyyyyyyyyyyyyyyyyy",
"yyyyyyyyyyyy*1:& %1:333:-%  O132yyyyyyyyyyyyyyyyyy",
"yyyyyyyyyyy<>3466;13333333>#O133<yyyyyyyyyyyyyyyyy",
"yyyyyyyyyyy<+;qr7X133358;##-+>31$yyyyyyyyyyyyyyyyy",
"yyyyyyyyyyy<;865# 1348err84%1132yyyyyyyyyyyyyyyyyy",
"yyyyyyyyyyy*;ew;  >333etr84%331.yyyyyyyyyyyyyyyyyy",
"yyyyyyyyyyyX OX  OO134we7O %33O.yyyyyyyyyyyyyyyyyy",
"yyyyyyyyyyyyX    %O13,XO  X>3>X.yyyyyyyyyyyyyyyyyy",
"yyyyyyyyyyyyyX    X1>- >: +33+.yyyyyyyyyyyyyyyyyyy",
"yyyyyyyyyyyyyy    X>+- >3XO33+.yyyyyyyyyyyyyyyyyyy",
"yyyyyyyyyyyyyyy.  X>#-%%,X+>:+.yyyyyyyyyyyyyyyyyyy",
"yyyyyyyyyyyyyyyX XX:#--+>XO-XX.yyyyyyyyyyyyyyyyyyy",
"yyyyyyyyyyyyyyyy >O +--+      yyyyyyyyyyyyyyyyyyyy",
"yyyyyyyyyyyyyyy..2O +--+    *.yyyyyyyyyyyyyyyyyyyy",
"yyyyyyyyyyyyyyyyy$O +--++X.<y.yyyyyyyyyyyyyyyyyyyy",
"yyyyyyyyyyyyyyyyyyy*#--@X..yyyyyyyyyyyyyyyyyyyyyyy",
"yyyyyyyyyyyyyyyyyyy2#--*y=$yyyyyyyyyyyyyyyyyyyyyyy",
"yyyyyyyyyyyyyyyyyyyy%--yyo.yyyyyyyyyyyyyyyyyyyyyyy",
"yyyyyyyyyyyyyyyyyyyyo--yyyyyyyyyyyyyyyyyyyyyyyyyyy",
"yyyyyyyyyyyyyyyyyyyyy%oyyyyyyyyyyyyyyyyyyyyyyyyyyy",
"yyyyyyyyyyyyyyyyyyyyy.yyyyyyyyyyyyyyyyyyyyyyyyyyyy",
"yyyyyyyyyyyyyyyyyyyyyyyyyyyyyyyyyyyyyyyyyyyyyyyyyy",
"yyyyyyyyyyyyyyyyyyyyyyyyyyyyyyyyyyyyyyyyyyyyyyyyyy",
"yyyyyyyyyyyyyyyyyyyyyyyyyyyyyyyyyyyyyyyyyyyyyyyyyy",
"yyyyyyyyyyyyyyyyyyyyyyyyyyyyyyyyyyyyyyyyyyyyyyyyyy",
"yyyyyyyyyyyyyyyyyyyyyyyyyyyyyyyyyyyyyyyyyyyyyyyyyy",
"yyyyyyyyyyyyyyyyyyyyyyyyyyyyyyyyyyyyyyyyyyyyyyyyyy"
};
